Oswald--100.ufo
<glyph name="parenleft" format="1">
  <advance width="526"/>
  <unicode hex="0028"/>
  <outline>
    <contour>
      <point x="392" y="-276" type="curve"/>
      <point x="399" y="-216" type="line"/>
      <point x="188" y="-180"/>
      <point x="228" y="176"/>
      <point x="283" y="696" type="curve"/>
      <point x="337" y="1215"/>
      <point x="372" y="1571"/>
      <point x="591" y="1608" type="curve"/>
      <point x="597" y="1668" type="line"/>
      <point x="309" y="1649"/>
      <point x="264" y="1263"/>
      <point x="204" y="696" type="curve"/>
      <point x="145" y="134"/>
      <point x="111" y="-239"/>
    </contour>
  </outline>
</glyph>
<glyph name="asterisk" format="1">
  <advance width="707"/>
  <unicode hex="002A"/>
  <outline>
    <contour>
      <point x="244" y="1022" type="line"/>
      <point x="449" y="1284" type="line"/>
      <point x="601" y="1022" type="line"/>
      <point x="655" y="1053" type="line"/>
      <point x="487" y="1308" type="line"/>
      <point x="768" y="1418" type="line"/>
      <point x="751" y="1471" type="line"/>
      <point x="479" y="1347" type="line"/>
      <point x="525" y="1658" type="line"/>
      <point x="460" y="1658" type="line"/>
      <point x="436" y="1347" type="line"/>
      <point x="187" y="1471" type="line"/>
      <point x="159" y="1418" type="line"/>
      <point x="418" y="1307" type="line"/>
      <point x="196" y="1056" type="line"/>
    </contour>
  </outline>
</glyph>
<glyph name="plus" format="1">
  <advance width="716"/>
  <unicode hex="002B"/>
  <outline>
    <contour>
      <point x="339" y="509" type="line"/>
      <point x="402" y="509" type="line"/>
      <point x="435" y="822" type="line"/>
      <point x="717" y="822" type="line"/>
      <point x="723" y="880" type="line"/>
      <point x="441" y="880" type="line"/>
      <point x="473" y="1188" type="line"/>
      <point x="410" y="1188" type="line"/>
      <point x="378" y="880" type="line"/>
      <point x="96" y="880" type="line"/>
      <point x="90" y="822" type="line"/>
      <point x="372" y="822" type="line"/>
    </contour>
  </outline>
</glyph>
<glyph name="slash" format="1">
  <advance width="650"/>
  <unicode hex="002F"/>
  <outline>
    <contour>
      <point x="-1" y="0" type="line"/>
      <point x="71" y="0" type="line"/>
      <point x="744" y="1658" type="line"/>
      <point x="672" y="1658" type="line"/>
    </contour>
  </outline>
</glyph>
<glyph name="three" format="1">
  <advance width="1005"/>
  <unicode hex="0033"/>
  <outline>
    <contour>
      <point x="444" y="-23" type="curve" smooth="yes"/>
      <point x="715" y="-23"/>
      <point x="842" y="168"/>
      <point x="871" y="436" type="curve" smooth="yes"/>
      <point x="902" y="740"/>
      <point x="770" y="840"/>
      <point x="678" y="859" type="curve"/>
      <point x="813" y="881"/>
      <point x="931" y="1010"/>
      <point x="958" y="1275" type="curve" smooth="yes"/>
      <point x="981" y="1497"/>
      <point x="900" y="1678"/>
      <point x="651" y="1678" type="curve" smooth="yes"/>
      <point x="373" y="1678"/>
      <point x="275" y="1525"/>
      <point x="251" y="1303" type="curve" smooth="yes"/>
      <point x="250" y="1283" type="line"/>
      <point x="320" y="1283" type="line"/>
      <point x="321" y="1284"/>
      <point x="323" y="1305"/>
      <point x="323" y="1305" type="curve" smooth="yes"/>
      <point x="348" y="1543"/>
      <point x="460" y="1616"/>
      <point x="645" y="1616" type="curve" smooth="yes"/>
      <point x="844" y="1616"/>
      <point x="898" y="1473"/>
      <point x="877" y="1277" type="curve" smooth="yes"/>
      <point x="849" y="1013"/>
      <point x="762" y="893"/>
      <point x="556" y="892" type="curve" smooth="yes"/>
      <point x="504" y="892" type="line"/>
      <point x="498" y="832" type="line"/>
      <point x="498" y="832"/>
      <point x="549" y="832"/>
      <point x="550" y="832" type="curve" smooth="yes"/>
      <point x="755" y="831"/>
      <point x="813" y="667"/>
      <point x="788" y="433" type="curve" smooth="yes"/>
      <point x="754" y="107"/>
      <point x="603" y="39"/>
      <point x="451" y="39" type="curve" smooth="yes"/>
      <point x="272" y="39"/>
      <point x="201" y="146"/>
      <point x="222" y="350" type="curve" smooth="yes"/>
      <point x="222" y="351"/>
      <point x="225" y="380"/>
      <point x="225" y="381" type="curve"/>
      <point x="156" y="381" type="line"/>
      <point x="153" y="357" type="line"/>
      <point x="130" y="132"/>
      <point x="199" y="-23"/>
    </contour>
  </outline>
</glyph>
<glyph name="five" format="1">
  <advance width="1007"/>
  <unicode hex="0035"/>
  <outline>
    <contour>
      <point x="477" y="-20" type="curve" smooth="yes"/>
      <point x="711" y="-20"/>
      <point x="848" y="123"/>
      <point x="887" y="500" type="curve" smooth="yes"/>
      <point x="925" y="858"/>
      <point x="842" y="1031"/>
      <point x="619" y="1031" type="curve" smooth="yes"/>
      <point x="477" y="1031"/>
      <point x="387" y="968"/>
      <point x="337" y="903" type="curve"/>
      <point x="412" y="1599" type="line"/>
      <point x="916" y="1599" type="line"/>
      <point x="927" y="1658" type="line"/>
      <point x="355" y="1658" type="line"/>
      <point x="268" y="828" type="line"/>
      <point x="329" y="828" type="line"/>
      <point x="419" y="940"/>
      <point x="509" y="968"/>
      <point x="591" y="968" type="curve" smooth="yes"/>
      <point x="761" y="968"/>
      <point x="853" y="880"/>
      <point x="812" y="495" type="curve" smooth="yes"/>
      <point x="778" y="165"/>
      <point x="687" y="41"/>
      <point x="490" y="41" type="curve" smooth="yes"/>
      <point x="308" y="41"/>
      <point x="233" y="134"/>
      <point x="260" y="390" type="curve"/>
      <point x="184" y="390" type="line"/>
      <point x="155" y="114"/>
      <point x="244" y="-20"/>
    </contour>
  </outline>
</glyph>
<glyph name="seven" format="1">
  <advance width="990"/>
  <unicode hex="0037"/>
  <outline>
    <contour>
      <point x="358" y="0" type="line"/>
      <point x="435" y="0" type="line"/>
      <point x="958" y="1619" type="line"/>
      <point x="961" y="1658" type="line"/>
      <point x="316" y="1658" type="line"/>
      <point x="309" y="1592" type="line"/>
      <point x="872" y="1592" type="line"/>
    </contour>
  </outline>
</glyph>
<glyph name="eight" format="1">
  <advance width="1007"/>
  <unicode hex="0038"/>
  <outline>
    <contour>
      <point x="460" y="-24" type="curve" smooth="yes"/>
      <point x="730" y="-24"/>
      <point x="849" y="156"/>
      <point x="877" y="422" type="curve" smooth="yes"/>
      <point x="915" y="778"/>
      <point x="749" y="831"/>
      <point x="651" y="867" type="curve"/>
      <point x="812" y="902"/>
      <point x="930" y="1029"/>
      <point x="954" y="1267" type="curve" smooth="yes"/>
      <point x="978" y="1488"/>
      <point x="914" y="1678"/>
      <point x="639" y="1678" type="curve" smooth="yes"/>
      <point x="363" y="1678"/>
      <point x="262" y="1493"/>
      <point x="239" y="1273" type="curve" smooth="yes"/>
      <point x="214" y="1035"/>
      <point x="303" y="902"/>
      <point x="457" y="867" type="curve"/>
      <point x="353" y="831"/>
      <point x="175" y="779"/>
      <point x="137" y="422" type="curve" smooth="yes"/>
      <point x="109" y="156"/>
      <point x="189" y="-24"/>
    </contour>
    <contour>
      <point x="467" y="40" type="curve" smooth="yes"/>
      <point x="301" y="40"/>
      <point x="185" y="122"/>
      <point x="217" y="426" type="curve" smooth="yes"/>
      <point x="243" y="674"/>
      <point x="339" y="809"/>
      <point x="551" y="836" type="curve" smooth="yes"/>
      <point x="755" y="809"/>
      <point x="823" y="674"/>
      <point x="797" y="426" type="curve"/>
      <point x="766" y="122"/>
      <point x="634" y="40"/>
    </contour>
    <contour>
      <point x="558" y="899" type="curve" smooth="yes"/>
      <point x="350" y="914"/>
      <point x="292" y="1043"/>
      <point x="315" y="1264" type="curve" smooth="yes"/>
      <point x="341" y="1511"/>
      <point x="445" y="1610"/>
      <point x="632" y="1610" type="curve" smooth="yes"/>
      <point x="817" y="1610"/>
      <point x="903" y="1512"/>
      <point x="877" y="1264" type="curve" smooth="yes"/>
      <point x="854" y="1043"/>
      <point x="767" y="914"/>
    </contour>
  </outline>
</glyph>
<glyph name="colon" format="1">
  <advance width="388"/>
  <unicode hex="003A"/>
  <outline>
    <contour>
      <point x="137" y="143" type="line"/>
      <point x="229" y="143" type="line"/>
      <point x="251" y="347" type="line"/>
      <point x="158" y="347" type="line"/>
    </contour>
    <contour>
      <point x="214" y="885" type="line"/>
      <point x="307" y="885" type="line"/>
      <point x="329" y="1089" type="line"/>
      <point x="236" y="1089" type="line"/>
    </contour>
  </outline>
</glyph>
<glyph name="less" format="1">
  <advance width="723"/>
  <unicode hex="003C"/>
  <outline>
    <contour>
      <point x="584" y="181" type="line"/>
      <point x="593" y="266" type="line"/>
      <point x="149" y="639" type="line"/>
      <point x="674" y="1032" type="line"/>
      <point x="683" y="1119" type="line"/>
      <point x="89" y="676" type="line"/>
      <point x="81" y="603" type="line"/>
    </contour>
  </outline>
</glyph>
<glyph name="question" format="1">
  <advance width="943"/>
  <unicode hex="003F"/>
  <outline>
    <contour>
      <point x="383" y="409" type="line"/>
      <point x="450" y="409" type="line"/>
      <point x="474" y="634" type="line"/>
      <point x="760" y="801"/>
      <point x="895" y="975"/>
      <point x="923" y="1241" type="curve"/>
      <point x="955" y="1544"/>
      <point x="789" y="1678"/>
      <point x="601" y="1678" type="curve" smooth="yes"/>
      <point x="390" y="1678"/>
      <point x="196" y="1559"/>
      <point x="235" y="1305" type="curve" smooth="yes"/>
      <point x="245" y="1229" type="line"/>
      <point x="314" y="1249" type="line"/>
      <point x="305" y="1321" type="line" smooth="yes"/>
      <point x="278" y="1515"/>
      <point x="417" y="1611"/>
      <point x="594" y="1611" type="curve" smooth="yes"/>
      <point x="741" y="1611"/>
      <point x="878" y="1506"/>
      <point x="850" y="1241" type="curve" smooth="yes"/>
      <point x="827" y="1021"/>
      <point x="730" y="846"/>
      <point x="409" y="659" type="curve"/>
    </contour>
    <contour>
      <point x="338" y="1" type="line"/>
      <point x="413" y="1" type="line"/>
      <point x="426" y="128" type="line"/>
      <point x="351" y="128" type="line"/>
    </contour>
  </outline>
</glyph>
<glyph name="at" format="1">
  <advance width="1592"/>
  <unicode hex="0040"/>
  <outline>
    <contour>
      <point x="832" y="-183" type="curve" smooth="yes"/>
      <point x="948" y="-183"/>
      <point x="1105" y="-158"/>
      <point x="1246" y="-131" type="curve"/>
      <point x="1228" y="-72" type="line"/>
      <point x="1136" y="-93"/>
      <point x="999" y="-121"/>
      <point x="842" y="-121" type="curve" smooth="yes"/>
      <point x="554" y="-121"/>
      <point x="148" y="-51"/>
      <point x="228" y="708" type="curve"/>
      <point x="289" y="1289"/>
      <point x="611" y="1587"/>
      <point x="974" y="1595" type="curve" smooth="yes"/>
      <point x="1340" y="1601"/>
      <point x="1590" y="1460"/>
      <point x="1484" y="795" type="curve" smooth="yes"/>
      <point x="1418" y="385"/>
      <point x="1231" y="351"/>
      <point x="1165" y="351" type="curve"/>
      <point x="1059" y="351"/>
      <point x="1067" y="436"/>
      <point x="1095" y="564" type="curve" smooth="yes"/>
      <point x="1254" y="1231" type="line"/>
      <point x="1193" y="1231" type="line"/>
      <point x="1173" y="1188" type="line"/>
      <point x="1133" y="1221"/>
      <point x="1081" y="1239"/>
      <point x="1023" y="1239" type="curve" smooth="yes"/>
      <point x="810" y="1239"/>
      <point x="539" y="1018"/>
      <point x="498" y="620" type="curve" smooth="yes"/>
      <point x="472" y="376"/>
      <point x="578" y="269"/>
      <point x="726" y="271" type="curve" smooth="yes"/>
      <point x="847" y="271"/>
      <point x="945" y="367"/>
      <point x="1006" y="477" type="curve"/>
      <point x="977" y="347"/>
      <point x="1066" y="287"/>
      <point x="1140" y="287" type="curve" smooth="yes"/>
      <point x="1214" y="287"/>
      <point x="1479" y="310"/>
      <point x="1554" y="796" type="curve" smooth="yes"/>
      <point x="1649" y="1403"/>
      <point x="1460" y="1662"/>
      <point x="981" y="1656" type="curve" smooth="yes"/>
      <point x="597" y="1652"/>
      <point x="222" y="1358"/>
      <point x="154" y="709" type="curve"/>
      <point x="77" y="-20"/>
      <point x="429" y="-183"/>
    </contour>
    <contour>
      <point x="735" y="331" type="curve"/>
      <point x="650" y="329"/>
      <point x="551" y="377"/>
      <point x="577" y="619" type="curve" smooth="yes"/>
      <point x="614" y="980"/>
      <point x="840" y="1176"/>
      <point x="1021" y="1176" type="curve" smooth="yes"/>
      <point x="1070" y="1176"/>
      <point x="1116" y="1161"/>
      <point x="1154" y="1132" type="curve" smooth="yes"/>
      <point x="1018" y="573" type="line"/>
      <point x="945" y="426"/>
      <point x="844" y="332"/>
    </contour>
  </outline>
</glyph>
<glyph name="F" format="1">
  <advance width="780"/>
  <unicode hex="0046"/>
  <outline>
    <contour>
      <point x="118" y="0" type="line"/>
      <point x="197" y="0" type="line"/>
      <point x="285" y="829" type="line"/>
      <point x="704" y="829" type="line"/>
      <point x="710" y="894" type="line"/>
      <point x="291" y="894" type="line"/>
      <point x="364" y="1592" type="line"/>
      <point x="838" y="1592" type="line"/>
      <point x="845" y="1658" type="line"/>
      <point x="292" y="1658" type="line"/>
    </contour>
  </outline>
</glyph>
<glyph name="K" format="1">
  <advance width="922"/>
  <unicode hex="004B"/>
  <outline>
    <contour>
      <point x="117" y="0" type="line"/>
      <point x="196" y="0" type="line"/>
      <point x="257" y="577" type="line"/>
      <point x="473" y="908" type="line"/>
      <point x="801" y="0" type="line"/>
      <point x="881" y="0" type="line"/>
      <point x="531" y="965" type="line"/>
      <point x="961" y="1658" type="line"/>
      <point x="881" y="1658" type="line"/>
      <point x="268" y="687" type="line"/>
      <point x="370" y="1658" type="line"/>
      <point x="291" y="1658" type="line"/>
    </contour>
  </outline>
</glyph>
<glyph name="M" format="1">
  <advance width="1278"/>
  <unicode hex="004D"/>
  <outline>
    <contour>
      <point x="94" y="0" type="line"/>
      <point x="166" y="0" type="line"/>
      <point x="364" y="1439" type="line"/>
      <point x="562" y="0" type="line"/>
      <point x="630" y="0" type="line"/>
      <point x="1136" y="1444" type="line"/>
      <point x="1031" y="0" type="line"/>
      <point x="1102" y="0" type="line"/>
      <point x="1224" y="1658" type="line"/>
      <point x="1140" y="1658" type="line"/>
      <point x="608" y="120" type="line"/>
      <point x="399" y="1658" type="line"/>
      <point x="323" y="1658" type="line"/>
    </contour>
  </outline>
</glyph>
<glyph name="N" format="1">
  <advance width="1048"/>
  <unicode hex="004E"/>
  <outline>
    <contour>
      <point x="118" y="0" type="line"/>
      <point x="190" y="0" type="line"/>
      <point x="346" y="1478" type="line"/>
      <point x="778" y="0" type="line"/>
      <point x="848" y="0" type="line"/>
      <point x="1022" y="1658" type="line"/>
      <point x="950" y="1658" type="line"/>
      <point x="794" y="174" type="line"/>
      <point x="363" y="1658" type="line"/>
      <point x="292" y="1658" type="line"/>
    </contour>
  </outline>
</glyph>
<glyph name="Q" format="1">
  <advance width="1062"/>
  <unicode hex="0051"/>
  <outline>
    <contour>
      <point x="795" y="-312" type="curve"/>
      <point x="842" y="-263" type="line"/>
      <point x="789" y="-216"/>
      <point x="660" y="-74"/>
      <point x="617" y="-9" type="curve"/>
      <point x="838" y="40"/>
      <point x="920" y="225"/>
      <point x="944" y="454" type="curve" smooth="yes"/>
      <point x="1023" y="1209" type="line" smooth="yes"/>
      <point x="1051" y="1478"/>
      <point x="974" y="1678"/>
      <point x="665" y="1678" type="curve" smooth="yes"/>
      <point x="357" y="1678"/>
      <point x="238" y="1478"/>
      <point x="210" y="1209" type="curve" smooth="yes"/>
      <point x="131" y="458" type="line" smooth="yes"/>
      <point x="103" y="187"/>
      <point x="166" y="-23"/>
      <point x="487" y="-23" type="curve" smooth="yes"/>
      <point x="510" y="-23"/>
      <point x="532" y="-23"/>
      <point x="553" y="-21" type="curve"/>
      <point x="624" y="-134"/>
      <point x="735" y="-260"/>
    </contour>
    <contour>
      <point x="494" y="44" type="curve" smooth="yes"/>
      <point x="240" y="44"/>
      <point x="184" y="204"/>
      <point x="208" y="441" type="curve" smooth="yes"/>
      <point x="290" y="1217" type="line" smooth="yes"/>
      <point x="315" y="1454"/>
      <point x="406" y="1612"/>
      <point x="659" y="1612" type="curve" smooth="yes"/>
      <point x="913" y="1612"/>
      <point x="969" y="1453"/>
      <point x="945" y="1217" type="curve" smooth="yes"/>
      <point x="863" y="441" type="line" smooth="yes"/>
      <point x="839" y="205"/>
      <point x="746" y="44"/>
    </contour>
  </outline>
</glyph>
<glyph name="S" format="1">
  <advance width="913"/>
  <unicode hex="0053"/>
  <outline>
    <contour>
      <point x="433" y="-23" type="curve" smooth="yes"/>
      <point x="646" y="-23"/>
      <point x="809" y="85"/>
      <point x="835" y="335" type="curve" smooth="yes"/>
      <point x="852" y="503"/>
      <point x="754" y="651"/>
      <point x="634" y="787" type="curve" smooth="yes"/>
      <point x="361" y="1096" type="line" smooth="yes"/>
      <point x="277" y="1193"/>
      <point x="255" y="1274"/>
      <point x="263" y="1354" type="curve" smooth="yes"/>
      <point x="283" y="1537"/>
      <point x="416" y="1613"/>
      <point x="579" y="1613" type="curve" smooth="yes"/>
      <point x="784" y="1614"/>
      <point x="853" y="1504"/>
      <point x="848" y="1252" type="curve"/>
      <point x="916" y="1265" type="line"/>
      <point x="931" y="1586"/>
      <point x="797" y="1678"/>
      <point x="581" y="1678" type="curve" smooth="yes"/>
      <point x="371" y="1677"/>
      <point x="214" y="1564"/>
      <point x="191" y="1349" type="curve" smooth="yes"/>
      <point x="182" y="1258"/>
      <point x="210" y="1152"/>
      <point x="299" y="1050" type="curve" smooth="yes"/>
      <point x="577" y="733" type="line" smooth="yes"/>
      <point x="706" y="586"/>
      <point x="776" y="476"/>
      <point x="761" y="332" type="curve" smooth="yes"/>
      <point x="739" y="124"/>
      <point x="619" y="45"/>
      <point x="442" y="45" type="curve" smooth="yes"/>
      <point x="214" y="45"/>
      <point x="166" y="186"/>
      <point x="158" y="417" type="curve"/>
      <point x="87" y="394" type="line"/>
      <point x="83" y="139"/>
      <point x="178" y="-23"/>
    </contour>
  </outline>
</glyph>
<glyph name="T" format="1">
  <advance width="768"/>
  <unicode hex="0054"/>
  <outline>
    <contour>
      <point x="307" y="0" type="line"/>
      <point x="385" y="0" type="line"/>
      <point x="552" y="1592" type="line"/>
      <point x="911" y="1592" type="line"/>
      <point x="918" y="1658" type="line"/>
      <point x="117" y="1658" type="line"/>
      <point x="110" y="1592" type="line"/>
      <point x="474" y="1592" type="line"/>
    </contour>
  </outline>
</glyph>
<glyph name="U" format="1">
  <advance width="1087"/>
  <unicode hex="0055"/>
  <outline>
    <contour>
      <point x="500" y="-23" type="curve" smooth="yes"/>
      <point x="795" y="-23"/>
      <point x="921" y="139"/>
      <point x="942" y="341" type="curve" smooth="yes"/>
      <point x="1080" y="1658" type="line"/>
      <point x="1002" y="1658" type="line"/>
      <point x="864" y="342" type="line" smooth="yes"/>
      <point x="846" y="170"/>
      <point x="743" y="44"/>
      <point x="507" y="44" type="curve" smooth="yes"/>
      <point x="255" y="44"/>
      <point x="194" y="167"/>
      <point x="213" y="342" type="curve" smooth="yes"/>
      <point x="351" y="1658" type="line"/>
      <point x="273" y="1658" type="line"/>
      <point x="135" y="341" type="line" smooth="yes"/>
      <point x="114" y="139"/>
      <point x="186" y="-23"/>
    </contour>
  </outline>
</glyph>
<glyph name="V" format="1">
  <advance width="969"/>
  <unicode hex="0056"/>
  <outline>
    <contour>
      <point x="418" y="0" type="line"/>
      <point x="496" y="0" type="line"/>
      <point x="1052" y="1658" type="line"/>
      <point x="973" y="1658" type="line"/>
      <point x="468" y="127" type="line"/>
      <point x="263" y="1658" type="line"/>
      <point x="184" y="1658" type="line"/>
    </contour>
  </outline>
</glyph>
<glyph name="W" format="1">
  <advance width="1433"/>
  <unicode hex="0057"/>
  <outline>
    <contour>
      <point x="321" y="0" type="line"/>
      <point x="395" y="0" type="line"/>
      <point x="844" y="1517" type="line"/>
      <point x="982" y="0" type="line"/>
      <point x="1054" y="0" type="line"/>
      <point x="1498" y="1658" type="line"/>
      <point x="1427" y="1658" type="line"/>
      <point x="1033" y="150" type="line"/>
      <point x="900" y="1612" type="line"/>
      <point x="808" y="1612" type="line"/>
      <point x="377" y="151" type="line"/>
      <point x="273" y="1658" type="line"/>
      <point x="201" y="1656" type="line"/>
    </contour>
  </outline>
</glyph>
<glyph name="X" format="1">
  <advance width="909"/>
  <unicode hex="0058"/>
  <outline>
    <contour>
      <point x="-9" y="0" type="line"/>
      <point x="73" y="0" type="line"/>
      <point x="480" y="780" type="line"/>
      <point x="760" y="0" type="line"/>
      <point x="836" y="0" type="line"/>
      <point x="533" y="841" type="line"/>
      <point x="1007" y="1659" type="line"/>
      <point x="925" y="1659" type="line"/>
      <point x="506" y="917" type="line"/>
      <point x="237" y="1659" type="line"/>
      <point x="166" y="1659" type="line"/>
      <point x="452" y="860" type="line"/>
    </contour>
  </outline>
</glyph>
<glyph name="Z" format="1">
  <advance width="814"/>
  <unicode hex="005A"/>
  <outline>
    <contour>
      <point x="19" y="0" type="line"/>
      <point x="734" y="0" type="line"/>
      <point x="741" y="66" type="line"/>
      <point x="110" y="66" type="line"/>
      <point x="899" y="1597" type="line"/>
      <point x="905" y="1658" type="line"/>
      <point x="253" y="1658" type="line"/>
      <point x="246" y="1592" type="line"/>
      <point x="813" y="1592" type="line"/>
      <point x="26" y="67" type="line"/>
    </contour>
  </outline>
</glyph>
<glyph name="bracketright" format="1">
  <advance width="530"/>
  <unicode hex="005D"/>
  <outline>
    <contour>
      <point x="42" y="-272" type="line"/>
      <point x="302" y="-272" type="line"/>
      <point x="505" y="1658" type="line"/>
      <point x="246" y="1658" type="line"/>
      <point x="240" y="1603" type="line"/>
      <point x="420" y="1603" type="line"/>
      <point x="229" y="-219" type="line"/>
      <point x="49" y="-219" type="line"/>
    </contour>
  </outline>
</glyph>
<glyph name="b" format="1">
  <advance width="785"/>
  <unicode hex="0062"/>
  <outline>
    <contour>
      <point x="374" y="-20" type="curve" smooth="yes"/>
      <point x="581" y="-20"/>
      <point x="663" y="139"/>
      <point x="700" y="492" type="curve" smooth="yes"/>
      <point x="722" y="703" type="line" smooth="yes"/>
      <point x="758" y="1043"/>
      <point x="720" y="1204"/>
      <point x="509" y="1204" type="curve" smooth="yes"/>
      <point x="397" y="1204"/>
      <point x="316" y="1138"/>
      <point x="269" y="1082" type="curve"/>
      <point x="329" y="1658" type="line"/>
      <point x="251" y="1658" type="line"/>
      <point x="77" y="0" type="line"/>
      <point x="155" y="0" type="line"/>
      <point x="165" y="101" type="line"/>
      <point x="200" y="48"/>
      <point x="265" y="-20"/>
    </contour>
    <contour>
      <point x="376" y="41" type="curve" smooth="yes"/>
      <point x="284" y="41"/>
      <point x="214" y="99"/>
      <point x="172" y="163" type="curve"/>
      <point x="262" y="1020" type="line"/>
      <point x="310" y="1069"/>
      <point x="397" y="1143"/>
      <point x="495" y="1143" type="curve" smooth="yes"/>
      <point x="659" y="1143"/>
      <point x="679" y="1023"/>
      <point x="644" y="704" type="curve" smooth="yes"/>
      <point x="623" y="488" type="line" smooth="yes"/>
      <point x="588" y="166"/>
      <point x="534" y="41"/>
    </contour>
  </outline>
</glyph>
<glyph name="c" format="1">
  <advance width="748"/>
  <unicode hex="0063"/>
  <outline>
    <contour>
      <point x="339" y="-20" type="curve" smooth="yes"/>
      <point x="600" y="-20"/>
      <point x="639" y="173"/>
      <point x="663" y="409" type="curve" smooth="yes"/>
      <point x="667" y="442" type="line"/>
      <point x="591" y="442" type="line"/>
      <point x="588" y="409" type="line"/>
      <point x="560" y="143"/>
      <point x="519" y="40"/>
      <point x="346" y="40" type="curve" smooth="yes"/>
      <point x="175" y="40"/>
      <point x="150" y="164"/>
      <point x="178" y="437" type="curve" smooth="yes"/>
      <point x="209" y="726" type="line" smooth="yes"/>
      <point x="241" y="1028"/>
      <point x="286" y="1144"/>
      <point x="461" y="1144" type="curve" smooth="yes"/>
      <point x="601" y="1144"/>
      <point x="658" y="1079"/>
      <point x="631" y="816" type="curve" smooth="yes"/>
      <point x="626" y="776" type="line"/>
      <point x="702" y="776" type="line"/>
      <point x="707" y="818" type="line" smooth="yes"/>
      <point x="728" y="1026"/>
      <point x="711" y="1204"/>
      <point x="467" y="1204" type="curve" smooth="yes"/>
      <point x="251" y="1204"/>
      <point x="169" y="1084"/>
      <point x="131" y="722" type="curve" smooth="yes"/>
      <point x="101" y="443" type="line" smooth="yes"/>
      <point x="74" y="192"/>
      <point x="80" y="-20"/>
    </contour>
  </outline>
</glyph>
<glyph name="f" format="1">
  <advance width="508"/>
  <unicode hex="0066"/>
  <outline>
    <contour>
      <point x="158" y="0" type="line"/>
      <point x="235" y="0" type="line"/>
      <point x="354" y="1131" type="line"/>
      <point x="557" y="1131" type="line"/>
      <point x="562" y="1184" type="line"/>
      <point x="359" y="1184" type="line"/>
      <point x="378" y="1364" type="line" smooth="yes"/>
      <point x="393" y="1503"/>
      <point x="412" y="1553"/>
      <point x="506" y="1553" type="curve" smooth="yes"/>
      <point x="533" y="1553"/>
      <point x="567" y="1546"/>
      <point x="593" y="1541" type="curve"/>
      <point x="600" y="1601" type="line"/>
      <point x="575" y="1610"/>
      <point x="531" y="1615"/>
      <point x="502" y="1615" type="curve" smooth="yes"/>
      <point x="335" y="1615"/>
      <point x="315" y="1502"/>
      <point x="301" y="1372" type="curve"/>
      <point x="282" y="1184" type="line"/>
      <point x="117" y="1184" type="line"/>
      <point x="112" y="1131" type="line"/>
      <point x="276" y="1131" type="line"/>
    </contour>
  </outline>
</glyph>
<glyph name="g" format="1">
  <advance width="875"/>
  <unicode hex="0067"/>
  <outline>
    <contour>
      <point x="312" y="-411" type="curve" smooth="yes"/>
      <point x="503" y="-411"/>
      <point x="707" y="-336"/>
      <point x="726" y="-158" type="curve" smooth="yes"/>
      <point x="741" y="-12"/>
      <point x="626" y="50"/>
      <point x="434" y="99" type="curve" smooth="yes"/>
      <point x="390" y="110"/>
      <point x="312" y="126"/>
      <point x="242" y="146" type="curve" smooth="yes"/>
      <point x="189" y="159"/>
      <point x="147" y="173"/>
      <point x="148" y="183" type="curve" smooth="yes"/>
      <point x="154" y="236"/>
      <point x="249" y="342"/>
      <point x="296" y="403" type="curve"/>
      <point x="330" y="389"/>
      <point x="371" y="380"/>
      <point x="422" y="380" type="curve" smooth="yes"/>
      <point x="651" y="380"/>
      <point x="767" y="564"/>
      <point x="791" y="798" type="curve" smooth="yes"/>
      <point x="796" y="843"/>
      <point x="789" y="941"/>
      <point x="774" y="995" type="curve"/>
      <point x="826" y="1054"/>
      <point x="897" y="1107"/>
      <point x="976" y="1126" type="curve"/>
      <point x="957" y="1192" type="line"/>
      <point x="929" y="1181" type="line"/>
      <point x="861" y="1156"/>
      <point x="792" y="1098"/>
      <point x="754" y="1038" type="curve"/>
      <point x="719" y="1116"/>
      <point x="656" y="1204"/>
      <point x="505" y="1204" type="curve" smooth="yes"/>
      <point x="268" y="1204"/>
      <point x="152" y="971"/>
      <point x="134" y="800" type="curve" smooth="yes"/>
      <point x="119" y="663"/>
      <point x="138" y="516"/>
      <point x="255" y="429" type="curve"/>
      <point x="199" y="366"/>
      <point x="84" y="240"/>
      <point x="76" y="163" type="curve" smooth="yes"/>
      <point x="72" y="124"/>
      <point x="166" y="95"/>
      <point x="218" y="83" type="curve"/>
      <point x="107" y="28"/>
      <point x="-22" y="-78"/>
      <point x="-34" y="-195" type="curve" smooth="yes"/>
      <point x="-48" y="-329"/>
      <point x="56" y="-411"/>
    </contour>
    <contour>
      <point x="319" y="-347" type="curve" smooth="yes"/>
      <point x="142" y="-347"/>
      <point x="23" y="-300"/>
      <point x="36" y="-186" type="curve" smooth="yes"/>
      <point x="48" y="-63"/>
      <point x="192" y="21"/>
      <point x="279" y="66" type="curve"/>
      <point x="390" y="42" type="line" smooth="yes"/>
      <point x="628" y="-13"/>
      <point x="667" y="-69"/>
      <point x="657" y="-160" type="curve" smooth="yes"/>
      <point x="643" y="-292"/>
      <point x="489" y="-347"/>
    </contour>
    <contour>
      <point x="428" y="439" type="curve" smooth="yes"/>
      <point x="203" y="439"/>
      <point x="197" y="678"/>
      <point x="209" y="800" type="curve"/>
      <point x="219" y="893"/>
      <point x="291" y="1145"/>
      <point x="500" y="1145" type="curve" smooth="yes"/>
      <point x="707" y="1145"/>
      <point x="729" y="912"/>
      <point x="716" y="799" type="curve"/>
      <point x="704" y="679"/>
      <point x="652" y="439"/>
    </contour>
  </outline>
</glyph>
<glyph name="h" format="1">
  <advance width="772"/>
  <unicode hex="0068"/>
  <outline>
    <contour>
      <point x="77" y="0" type="line"/>
      <point x="155" y="0" type="line"/>
      <point x="259" y="999" type="line"/>
      <point x="344" y="1084"/>
      <point x="442" y="1143"/>
      <point x="529" y="1143" type="curve" smooth="yes"/>
      <point x="605" y="1143"/>
      <point x="658" y="1105"/>
      <point x="641" y="943" type="curve" smooth="yes"/>
      <point x="542" y="0" type="line"/>
      <point x="621" y="0" type="line"/>
      <point x="720" y="941" type="line" smooth="yes"/>
      <point x="742" y="1150"/>
      <point x="654" y="1204"/>
      <point x="559" y="1204" type="curve" smooth="yes"/>
      <point x="453" y="1204"/>
      <point x="349" y="1147"/>
      <point x="266" y="1057" type="curve"/>
      <point x="329" y="1658" type="line"/>
      <point x="251" y="1658" type="line"/>
    </contour>
  </outline>
</glyph>
<glyph name="k" format="1">
  <advance width="759"/>
  <unicode hex="006B"/>
  <outline>
    <contour>
      <point x="77" y="0" type="line"/>
      <point x="155" y="0" type="line"/>
      <point x="201" y="441" type="line"/>
      <point x="409" y="683" type="line"/>
      <point x="615" y="0" type="line"/>
      <point x="694" y="0" type="line"/>
      <point x="471" y="734" type="line"/>
      <point x="839" y="1184" type="line"/>
      <point x="752" y="1184" type="line"/>
      <point x="211" y="536" type="line"/>
      <point x="329" y="1658" type="line"/>
      <point x="251" y="1658" type="line"/>
    </contour>
  </outline>
</glyph>
<glyph name="l" format="1">
  <advance width="355"/>
  <unicode hex="006C"/>
  <outline>
    <contour>
      <point x="98" y="0" type="line"/>
      <point x="176" y="0" type="line"/>
      <point x="350" y="1658" type="line"/>
      <point x="272" y="1658" type="line"/>
    </contour>
  </outline>
</glyph>
<glyph name="n" format="1">
  <advance width="773"/>
  <unicode hex="006E"/>
  <outline>
    <contour>
      <point x="77" y="0" type="line"/>
      <point x="154" y="0" type="line"/>
      <point x="259" y="996" type="line"/>
      <point x="344" y="1083"/>
      <point x="443" y="1143"/>
      <point x="531" y="1143" type="curve" smooth="yes"/>
      <point x="606" y="1143"/>
      <point x="659" y="1105"/>
      <point x="643" y="943" type="curve" smooth="yes"/>
      <point x="543" y="0" type="line"/>
      <point x="622" y="0" type="line"/>
      <point x="721" y="941" type="line" smooth="yes"/>
      <point x="743" y="1150"/>
      <point x="656" y="1204"/>
      <point x="560" y="1204" type="curve" smooth="yes"/>
      <point x="454" y="1204"/>
      <point x="349" y="1146"/>
      <point x="265" y="1054" type="curve"/>
      <point x="278" y="1184" type="line"/>
      <point x="201" y="1184" type="line"/>
    </contour>
  </outline>
</glyph>
<glyph name="v" format="1">
  <advance width="715"/>
  <unicode hex="0076"/>
  <outline>
    <contour>
      <point x="283" y="0" type="line"/>
      <point x="364" y="0" type="line"/>
      <point x="757" y="1184" type="line"/>
      <point x="682" y="1184" type="line"/>
      <point x="335" y="112" type="line"/>
      <point x="204" y="1184" type="line"/>
      <point x="124" y="1184" type="line"/>
    </contour>
  </outline>
</glyph>
<glyph name="w" format="1">
  <advance width="1148"/>
  <unicode hex="0077"/>
  <outline>
    <contour>
      <point x="226" y="0" type="line"/>
      <point x="329" y="0" type="line"/>
      <point x="654" y="1096" type="line"/>
      <point x="757" y="0" type="line"/>
      <point x="850" y="0" type="line"/>
      <point x="1161" y="1184" type="line"/>
      <point x="1088" y="1184" type="line"/>
      <point x="811" y="77" type="line"/>
      <point x="705" y="1184" type="line"/>
      <point x="617" y="1184" type="line"/>
      <point x="285" y="71" type="line"/>
      <point x="226" y="1184" type="line"/>
      <point x="153" y="1184" type="line"/>
    </contour>
  </outline>
</glyph>
<glyph name="y" format="1">
  <advance width="757"/>
  <unicode hex="0079"/>
  <outline>
    <contour>
      <point x="-1" y="-294" type="line"/>
      <point x="50" y="-294" type="line"/>
      <point x="236" y="-294"/>
      <point x="320" y="-235"/>
      <point x="365" y="-106" type="curve" smooth="yes"/>
      <point x="789" y="1184" type="line"/>
      <point x="713" y="1184" type="line"/>
      <point x="350" y="48" type="line"/>
      <point x="214" y="1184" type="line"/>
      <point x="139" y="1184" type="line"/>
      <point x="277" y="104" type="line" smooth="yes"/>
      <point x="284" y="48"/>
      <point x="295" y="-24"/>
      <point x="292" y="-60" type="curve"/>
      <point x="283" y="-162"/>
      <point x="251" y="-228"/>
      <point x="6" y="-228" type="curve"/>
    </contour>
  </outline>
</glyph>
<glyph name="braceright" format="1">
  <advance width="439"/>
  <unicode hex="007D"/>
  <outline>
    <contour>
      <point x="-34" y="-280" type="line"/>
      <point x="173" y="-280"/>
      <point x="181" y="-232"/>
      <point x="219" y="133" type="curve"/>
      <point x="244" y="372" type="line"/>
      <point x="267" y="596"/>
      <point x="294" y="665"/>
      <point x="394" y="665" type="curve"/>
      <point x="403" y="744" type="line"/>
      <point x="303" y="744"/>
      <point x="290" y="814"/>
      <point x="314" y="1038" type="curve"/>
      <point x="338" y="1261" type="line"/>
      <point x="376" y="1626"/>
      <point x="378" y="1674"/>
      <point x="171" y="1674" type="curve"/>
      <point x="165" y="1614" type="line"/>
      <point x="302" y="1614"/>
      <point x="300" y="1597"/>
      <point x="265" y="1261" type="curve" smooth="yes"/>
      <point x="238" y="1006" type="line"/>
      <point x="217" y="801"/>
      <point x="231" y="733"/>
      <point x="311" y="705" type="curve"/>
      <point x="225" y="677"/>
      <point x="197" y="609"/>
      <point x="175" y="404" type="curve"/>
      <point x="146" y="133" type="line" smooth="yes"/>
      <point x="111" y="-203"/>
      <point x="109" y="-220"/>
      <point x="-28" y="-220" type="curve"/>
    </contour>
  </outline>
</glyph>
<glyph name="exclamdown" format="1">
  <advance width="399"/>
  <unicode hex="00A1"/>
  <outline>
    <contour>
      <point x="63" y="-430" type="line"/>
      <point x="160" y="-430" type="line"/>
      <point x="265" y="872" type="line"/>
      <point x="236" y="872" type="line"/>
    </contour>
    <contour>
      <point x="228" y="1098" type="line"/>
      <point x="324" y="1098" type="line"/>
      <point x="337" y="1228" type="line"/>
      <point x="241" y="1228" type="line"/>
    </contour>
  </outline>
</glyph>
<glyph name="currency" format="1">
  <advance width="1027"/>
  <unicode hex="00A4"/>
  <outline>
    <contour>
      <point x="61" y="381" type="line"/>
      <point x="240" y="543" type="line"/>
      <point x="309" y="471"/>
      <point x="407" y="427"/>
      <point x="521" y="428" type="curve"/>
      <point x="635" y="427"/>
      <point x="743" y="471"/>
      <point x="826" y="543" type="curve"/>
      <point x="971" y="381" type="line"/>
      <point x="1004" y="411" type="line"/>
      <point x="858" y="573" type="line"/>
      <point x="935" y="650"/>
      <point x="988" y="754"/>
      <point x="1000" y="866" type="curve" smooth="yes"/>
      <point x="1012" y="979"/>
      <point x="981" y="1082"/>
      <point x="921" y="1159" type="curve"/>
      <point x="1100" y="1321" type="line"/>
      <point x="1073" y="1351" type="line"/>
      <point x="894" y="1189" type="line"/>
      <point x="826" y="1261"/>
      <point x="727" y="1305"/>
      <point x="613" y="1304" type="curve"/>
      <point x="499" y="1305"/>
      <point x="392" y="1261"/>
      <point x="308" y="1189" type="curve"/>
      <point x="163" y="1351" type="line"/>
      <point x="130" y="1321" type="line"/>
      <point x="276" y="1159" type="line"/>
      <point x="199" y="1082"/>
      <point x="146" y="979"/>
      <point x="134" y="866" type="curve" smooth="yes"/>
      <point x="122" y="754"/>
      <point x="153" y="650"/>
      <point x="214" y="573" type="curve"/>
      <point x="34" y="411" type="line"/>
    </contour>
    <contour>
      <point x="526" y="478" type="curve" smooth="yes"/>
      <point x="313" y="478"/>
      <point x="168" y="653"/>
      <point x="190" y="866" type="curve" smooth="yes"/>
      <point x="213" y="1080"/>
      <point x="394" y="1254"/>
      <point x="607" y="1254" type="curve" smooth="yes"/>
      <point x="821" y="1254"/>
      <point x="966" y="1080"/>
      <point x="943" y="866" type="curve" smooth="yes"/>
      <point x="920" y="653"/>
      <point x="740" y="478"/>
    </contour>
  </outline>
</glyph>
<glyph name="yen" format="1">
  <advance width="839"/>
  <unicode hex="00A5"/>
  <outline>
    <contour>
      <point x="348" y="0" type="line"/>
      <point x="429" y="0" type="line"/>
      <point x="451" y="214" type="line"/>
      <point x="673" y="214" type="line"/>
      <point x="679" y="269" type="line"/>
      <point x="457" y="269" type="line"/>
      <point x="482" y="507" type="line"/>
      <point x="704" y="507" type="line"/>
      <point x="710" y="560" type="line"/>
      <point x="503" y="560" type="line"/>
      <point x="976" y="1658" type="line"/>
      <point x="891" y="1658" type="line"/>
      <point x="454" y="608" type="line"/>
      <point x="220" y="1658" type="line"/>
      <point x="133" y="1658" type="line"/>
      <point x="391" y="560" type="line"/>
      <point x="180" y="560" type="line"/>
      <point x="175" y="507" type="line"/>
      <point x="401" y="507" type="line"/>
      <point x="376" y="269" type="line"/>
      <point x="150" y="269" type="line"/>
      <point x="144" y="214" type="line"/>
      <point x="370" y="214" type="line"/>
    </contour>
  </outline>
</glyph>
<glyph name="brokenbar" format="1">
  <advance width="391"/>
  <unicode hex="00A6"/>
  <outline>
    <contour>
      <point x="78" y="-383" type="line"/>
      <point x="152" y="-383" type="line"/>
      <point x="243" y="479" type="line"/>
      <point x="169" y="479" type="line"/>
    </contour>
    <contour>
      <point x="202" y="795" type="line"/>
      <point x="276" y="795" type="line"/>
      <point x="366" y="1658" type="line"/>
      <point x="292" y="1658" type="line"/>
    </contour>
  </outline>
</glyph>
<glyph name="section" format="1">
  <advance width="763"/>
  <unicode hex="00A7"/>
  <outline>
    <contour>
      <point x="348" y="-20" type="curve" smooth="yes"/>
      <point x="509" y="-20"/>
      <point x="634" y="84"/>
      <point x="647" y="245" type="curve" smooth="yes"/>
      <point x="655" y="345"/>
      <point x="598" y="415"/>
      <point x="553" y="482" type="curve"/>
      <point x="637" y="521"/>
      <point x="723" y="571"/>
      <point x="746" y="690" type="curve" smooth="yes"/>
      <point x="774" y="831"/>
      <point x="712" y="916"/>
      <point x="620" y="1012" type="curve" smooth="yes"/>
      <point x="444" y="1189" type="line" smooth="yes"/>
      <point x="368" y="1270"/>
      <point x="303" y="1357"/>
      <point x="311" y="1437" type="curve" smooth="yes"/>
      <point x="323" y="1553"/>
      <point x="412" y="1613"/>
      <point x="509" y="1613" type="curve" smooth="yes"/>
      <point x="635" y="1613"/>
      <point x="674" y="1468"/>
      <point x="694" y="1373" type="curve"/>
      <point x="762" y="1393" type="line"/>
      <point x="731" y="1513"/>
      <point x="683" y="1675"/>
      <point x="519" y="1675" type="curve" smooth="yes"/>
      <point x="355" y="1675"/>
      <point x="252" y="1568"/>
      <point x="237" y="1435" type="curve" smooth="yes"/>
      <point x="228" y="1348"/>
      <point x="284" y="1274"/>
      <point x="346" y="1200" type="curve"/>
      <point x="249" y="1172"/>
      <point x="146" y="1103"/>
      <point x="133" y="982" type="curve" smooth="yes"/>
      <point x="127" y="923"/>
      <point x="146" y="850"/>
      <point x="209" y="781" type="curve"/>
      <point x="409" y="556" type="line" smooth="yes"/>
      <point x="586" y="350"/>
      <point x="586" y="290"/>
      <point x="579" y="228" type="curve" smooth="yes"/>
      <point x="567" y="116"/>
      <point x="478" y="39"/>
      <point x="358" y="39" type="curve" smooth="yes"/>
      <point x="229" y="39"/>
      <point x="158" y="170"/>
      <point x="142" y="319" type="curve"/>
      <point x="78" y="298" type="line"/>
      <point x="101" y="135"/>
      <point x="175" y="-20"/>
    </contour>
    <contour>
      <point x="519" y="525" type="curve"/>
      <point x="267" y="826" type="line" smooth="yes"/>
      <point x="217" y="885"/>
      <point x="198" y="935"/>
      <point x="204" y="985" type="curve" smooth="yes"/>
      <point x="213" y="1076"/>
      <point x="283" y="1133"/>
      <point x="379" y="1158" type="curve"/>
      <point x="566" y="970" type="line" smooth="yes"/>
      <point x="668" y="868"/>
      <point x="710" y="795"/>
      <point x="684" y="691" type="curve" smooth="yes"/>
      <point x="665" y="607"/>
      <point x="584" y="551"/>
    </contour>
  </outline>
</glyph>
<glyph name="dieresis" format="1">
  <advance width="746"/>
  <unicode hex="00A8"/>
  <outline>
    <contour>
      <point x="278" y="1524" type="line"/>
      <point x="361" y="1524" type="line"/>
      <point x="375" y="1658" type="line"/>
      <point x="292" y="1658" type="line"/>
    </contour>
    <contour>
      <point x="598" y="1524" type="line"/>
      <point x="681" y="1524" type="line"/>
      <point x="695" y="1658" type="line"/>
      <point x="612" y="1658" type="line"/>
    </contour>
  </outline>
</glyph>
<glyph name="copyright" format="1">
  <advance width="1765"/>
  <unicode hex="00A9"/>
  <outline>
    <contour>
      <point x="834" y="243" type="curve" smooth="yes"/>
      <point x="1123" y="243"/>
      <point x="1154" y="419"/>
      <point x="1182" y="678" type="curve"/>
      <point x="1187" y="732" type="line"/>
      <point x="1112" y="732" type="line"/>
      <point x="1107" y="680" type="line" smooth="yes"/>
      <point x="1076" y="385"/>
      <point x="1034" y="308"/>
      <point x="841" y="308" type="curve" smooth="yes"/>
      <point x="652" y="308"/>
      <point x="618" y="428"/>
      <point x="650" y="730" type="curve" smooth="yes"/>
      <point x="677" y="986" type="line" smooth="yes"/>
      <point x="712" y="1322"/>
      <point x="765" y="1431"/>
      <point x="959" y="1431" type="curve" smooth="yes"/>
      <point x="1115" y="1431"/>
      <point x="1182" y="1390"/>
      <point x="1151" y="1099" type="curve" smooth="yes"/>
      <point x="1145" y="1045" type="line"/>
      <point x="1220" y="1045" type="line"/>
      <point x="1226" y="1101" type="line"/>
      <point x="1250" y="1331"/>
      <point x="1236" y="1496"/>
      <point x="965" y="1496" type="curve" smooth="yes"/>
      <point x="726" y="1496"/>
      <point x="637" y="1384"/>
      <point x="594" y="982" type="curve" smooth="yes"/>
      <point x="568" y="736" type="line" smooth="yes"/>
      <point x="539" y="458"/>
      <point x="546" y="243"/>
    </contour>
    <contour>
      <point x="846" y="31" type="curve" smooth="yes"/>
      <point x="317" y="31"/>
      <point x="129" y="434"/>
      <point x="173" y="845" type="curve" smooth="yes"/>
      <point x="216" y="1257"/>
      <point x="488" y="1654"/>
      <point x="1016" y="1654" type="curve" smooth="yes"/>
      <point x="1543" y="1654"/>
      <point x="1733" y="1257"/>
      <point x="1690" y="845" type="curve" smooth="yes"/>
      <point x="1646" y="434"/>
      <point x="1373" y="31"/>
    </contour>
    <contour>
      <point x="840" y="-22" type="curve" smooth="yes"/>
      <point x="1426" y="-22"/>
      <point x="1709" y="426"/>
      <point x="1753" y="843" type="curve" smooth="yes"/>
      <point x="1796" y="1260"/>
      <point x="1606" y="1708"/>
      <point x="1022" y="1708" type="curve" smooth="yes"/>
      <point x="437" y="1708"/>
      <point x="151" y="1260"/>
      <point x="108" y="843" type="curve" smooth="yes"/>
      <point x="64" y="427"/>
      <point x="255" y="-22"/>
    </contour>
  </outline>
</glyph>
<glyph name="registered" format="1">
  <advance width="1770"/>
  <unicode hex="00AE"/>
  <outline>
    <contour>
      <point x="608" y="207" type="line"/>
      <point x="679" y="207" type="line"/>
      <point x="748" y="863" type="line"/>
      <point x="1013" y="863" type="line"/>
      <point x="1155" y="207" type="line"/>
      <point x="1228" y="207" type="line"/>
      <point x="1081" y="872" type="line"/>
      <point x="1252" y="894"/>
      <point x="1308" y="1040"/>
      <point x="1323" y="1182" type="curve" smooth="yes"/>
      <point x="1340" y="1336"/>
      <point x="1312" y="1497"/>
      <point x="1094" y="1497" type="curve" smooth="yes"/>
      <point x="743" y="1497" type="line"/>
    </contour>
    <contour>
      <point x="754" y="919" type="line"/>
      <point x="808" y="1437" type="line"/>
      <point x="1081" y="1437" type="line" smooth="yes"/>
      <point x="1237" y="1437"/>
      <point x="1269" y="1345"/>
      <point x="1251" y="1183" type="curve" smooth="yes"/>
      <point x="1235" y="1028"/>
      <point x="1196" y="919"/>
      <point x="1027" y="919" type="curve" smooth="yes"/>
    </contour>
    <contour>
      <point x="848" y="32" type="curve" smooth="yes"/>
      <point x="321" y="32"/>
      <point x="133" y="434"/>
      <point x="177" y="844" type="curve" smooth="yes"/>
      <point x="220" y="1254"/>
      <point x="491" y="1651"/>
      <point x="1018" y="1651" type="curve" smooth="yes"/>
      <point x="1543" y="1651"/>
      <point x="1732" y="1254"/>
      <point x="1689" y="844" type="curve" smooth="yes"/>
      <point x="1646" y="434"/>
      <point x="1373" y="32"/>
    </contour>
    <contour>
      <point x="843" y="-22" type="curve" smooth="yes"/>
      <point x="1428" y="-22"/>
      <point x="1711" y="425"/>
      <point x="1755" y="842" type="curve" smooth="yes"/>
      <point x="1798" y="1258"/>
      <point x="1608" y="1706"/>
      <point x="1024" y="1706" type="curve" smooth="yes"/>
      <point x="440" y="1706"/>
      <point x="154" y="1258"/>
      <point x="111" y="842" type="curve" smooth="yes"/>
      <point x="67" y="426"/>
      <point x="258" y="-22"/>
    </contour>
  </outline>
</glyph>
<glyph name="threesuperior" format="1">
  <advance width="798"/>
  <unicode hex="00B3"/>
  <outline>
    <contour>
      <point x="415" y="741" type="curve" smooth="yes"/>
      <point x="579" y="741"/>
      <point x="669" y="860"/>
      <point x="686" y="1020" type="curve" smooth="yes"/>
      <point x="705" y="1205"/>
      <point x="629" y="1252"/>
      <point x="577" y="1271" type="curve"/>
      <point x="643" y="1285"/>
      <point x="714" y="1359"/>
      <point x="731" y="1521" type="curve" smooth="yes"/>
      <point x="744" y="1653"/>
      <point x="693" y="1762"/>
      <point x="544" y="1762" type="curve" smooth="yes"/>
      <point x="377" y="1762"/>
      <point x="304" y="1670"/>
      <point x="291" y="1536" type="curve" smooth="yes"/>
      <point x="290" y="1524" type="line"/>
      <point x="367" y="1524" type="line"/>
      <point x="368" y="1539" type="line" smooth="yes"/>
      <point x="379" y="1645"/>
      <point x="429" y="1698"/>
      <point x="538" y="1698" type="curve" smooth="yes"/>
      <point x="628" y="1698"/>
      <point x="669" y="1638"/>
      <point x="657" y="1521" type="curve"/>
      <point x="640" y="1360"/>
      <point x="589" y="1302"/>
      <point x="502" y="1302" type="curve" smooth="yes"/>
      <point x="425" y="1302" type="line"/>
      <point x="417" y="1236" type="line"/>
      <point x="495" y="1236" type="line" smooth="yes"/>
      <point x="581" y="1236"/>
      <point x="625" y="1152"/>
      <point x="611" y="1018" type="curve" smooth="yes"/>
      <point x="595" y="859"/>
      <point x="516" y="806"/>
      <point x="428" y="806" type="curve" smooth="yes"/>
      <point x="322" y="806"/>
      <point x="293" y="870"/>
      <point x="303" y="966" type="curve" smooth="yes"/>
      <point x="305" y="985" type="line"/>
      <point x="228" y="985" type="line"/>
      <point x="227" y="971" type="line"/>
      <point x="212" y="836"/>
      <point x="266" y="741"/>
    </contour>
  </outline>
</glyph>
<glyph name="mu" format="1">
  <advance width="816"/>
  <unicode hex="00B5"/>
  <outline>
    <contour>
      <point x="29" y="-351" type="line"/>
      <point x="108" y="-351" type="line"/>
      <point x="147" y="23" type="line"/>
      <point x="178" y="-9"/>
      <point x="219" y="-19"/>
      <point x="260" y="-19" type="curve" smooth="yes"/>
      <point x="368" y="-17"/>
      <point x="477" y="45"/>
      <point x="561" y="145" type="curve"/>
      <point x="546" y="0" type="line"/>
      <point x="623" y="0" type="line"/>
      <point x="747" y="1184" type="line"/>
      <point x="670" y="1184" type="line"/>
      <point x="567" y="203" type="line"/>
      <point x="480" y="108"/>
      <point x="375" y="41"/>
      <point x="281" y="41" type="curve" smooth="yes"/>
      <point x="206" y="41"/>
      <point x="153" y="79"/>
      <point x="170" y="241" type="curve" smooth="yes"/>
      <point x="269" y="1184" type="line"/>
      <point x="190" y="1184" type="line"/>
    </contour>
  </outline>
</glyph>
<glyph name="paragraph" format="1">
  <advance width="978"/>
  <unicode hex="00B6"/>
  <outline>
    <contour>
      <point x="352" y="-191" type="line"/>
      <point x="414" y="-191" type="line"/>
      <point x="601" y="1594" type="line"/>
      <point x="882" y="1594" type="line"/>
      <point x="695" y="-191" type="line"/>
      <point x="756" y="-191" type="line"/>
      <point x="950" y="1658" type="line"/>
      <point x="534" y="1658" type="line" smooth="yes"/>
      <point x="277" y="1658"/>
      <point x="172" y="1536"/>
      <point x="156" y="1384" type="curve" smooth="yes"/>
      <point x="137" y="1208"/>
      <point x="263" y="1114"/>
      <point x="490" y="1116" type="curve"/>
    </contour>
  </outline>
</glyph>
<glyph name="onesuperior" format="1">
  <advance width="776"/>
  <unicode hex="00B9"/>
  <outline>
    <contour>
      <point x="432" y="754" type="line"/>
      <point x="505" y="754" type="line"/>
      <point x="610" y="1756" type="line"/>
      <point x="539" y="1756" type="line"/>
      <point x="470" y="1665"/>
      <point x="405" y="1630"/>
      <point x="350" y="1609" type="curve"/>
      <point x="343" y="1551" type="line"/>
      <point x="409" y="1565"/>
      <point x="474" y="1597"/>
      <point x="527" y="1663" type="curve"/>
    </contour>
  </outline>
</glyph>
<glyph name="ordmasculine" format="1">
  <advance width="773"/>
  <unicode hex="00BA"/>
  <outline>
    <contour>
      <point x="427" y="779" type="curve" smooth="yes"/>
      <point x="274" y="779"/>
      <point x="238" y="871"/>
      <point x="253" y="1009" type="curve" smooth="yes"/>
      <point x="294" y="1407" type="line" smooth="yes"/>
      <point x="309" y="1544"/>
      <point x="367" y="1636"/>
      <point x="517" y="1636" type="curve" smooth="yes"/>
      <point x="669" y="1636"/>
      <point x="707" y="1544"/>
      <point x="692" y="1407" type="curve" smooth="yes"/>
      <point x="651" y="1009" type="line" smooth="yes"/>
      <point x="636" y="871"/>
      <point x="580" y="779"/>
    </contour>
    <contour>
      <point x="423" y="735" type="curve" smooth="yes"/>
      <point x="635" y="735"/>
      <point x="693" y="851"/>
      <point x="710" y="1013" type="curve" smooth="yes"/>
      <point x="751" y="1402" type="line" smooth="yes"/>
      <point x="768" y="1564"/>
      <point x="722" y="1678"/>
      <point x="522" y="1678" type="curve" smooth="yes"/>
      <point x="320" y="1678"/>
      <point x="253" y="1565"/>
      <point x="235" y="1402" type="curve" smooth="yes"/>
      <point x="194" y="1013" type="line" smooth="yes"/>
      <point x="178" y="851"/>
      <point x="212" y="735"/>
    </contour>
  </outline>
</glyph>
<glyph name="guillemotright" format="1">
  <advance width="812"/>
  <unicode hex="00BB"/>
  <outline>
    <contour>
      <point x="92" y="273" type="line"/>
      <point x="486" y="688" type="line"/>
      <point x="487" y="712" type="line"/>
      <point x="181" y="1127" type="line"/>
      <point x="171" y="1024" type="line"/>
      <point x="405" y="699" type="line"/>
      <point x="103" y="376" type="line"/>
    </contour>
    <contour>
      <point x="360" y="273" type="line"/>
      <point x="752" y="688" type="line"/>
      <point x="754" y="712" type="line"/>
      <point x="449" y="1127" type="line"/>
      <point x="439" y="1024" type="line"/>
      <point x="672" y="695" type="line"/>
      <point x="371" y="376" type="line"/>
    </contour>
  </outline>
</glyph>
<glyph name="onequarter" format="1">
  <advance width="1512"/>
  <unicode hex="00BC"/>
  <outline>
    <contour>
      <point x="1196" y="-17" type="line"/>
      <point x="1269" y="-17" type="line"/>
      <point x="1302" y="297" type="line"/>
      <point x="1435" y="297" type="line"/>
      <point x="1442" y="358" type="line"/>
      <point x="1309" y="358" type="line"/>
      <point x="1387" y="1103" type="line"/>
      <point x="1308" y="1102" type="line"/>
      <point x="910" y="354" type="line"/>
      <point x="904" y="297" type="line"/>
      <point x="1229" y="297" type="line"/>
    </contour>
    <contour>
      <point x="284" y="532" type="line"/>
      <point x="352" y="532" type="line"/>
      <point x="470" y="1658" type="line"/>
      <point x="412" y="1658" type="line"/>
      <point x="394" y="1641"/>
      <point x="282" y="1569"/>
      <point x="230" y="1544" type="curve"/>
      <point x="222" y="1475" type="line"/>
      <point x="394" y="1571" type="line"/>
    </contour>
    <contour>
      <point x="348" y="0" type="line"/>
      <point x="423" y="0" type="line"/>
      <point x="1201" y="1658" type="line"/>
      <point x="1127" y="1658" type="line"/>
    </contour>
    <contour>
      <point x="981" y="358" type="line"/>
      <point x="1301" y="981" type="line"/>
      <point x="1236" y="358" type="line"/>
    </contour>
  </outline>
</glyph>
<glyph name="threequarters" format="1">
  <advance width="1512"/>
  <unicode hex="00BE"/>
  <outline>
    <contour>
      <point x="299" y="663" type="curve" smooth="yes"/>
      <point x="458" y="663"/>
      <point x="548" y="778"/>
      <point x="565" y="935" type="curve" smooth="yes"/>
      <point x="584" y="1115"/>
      <point x="504" y="1161"/>
      <point x="449" y="1179" type="curve"/>
      <point x="518" y="1192"/>
      <point x="592" y="1264"/>
      <point x="609" y="1423" type="curve" smooth="yes"/>
      <point x="623" y="1553"/>
      <point x="572" y="1661"/>
      <point x="424" y="1661" type="curve" smooth="yes"/>
      <point x="260" y="1661"/>
      <point x="189" y="1570"/>
      <point x="175" y="1438" type="curve"/>
      <point x="253" y="1441" type="line"/>
      <point x="264" y="1544"/>
      <point x="311" y="1598"/>
      <point x="419" y="1598" type="curve" smooth="yes"/>
      <point x="507" y="1598"/>
      <point x="546" y="1538"/>
      <point x="534" y="1423" type="curve" smooth="yes"/>
      <point x="517" y="1267"/>
      <point x="463" y="1211"/>
      <point x="377" y="1211" type="curve"/>
      <point x="371" y="1145" type="line"/>
      <point x="456" y="1145"/>
      <point x="504" y="1064"/>
      <point x="490" y="933" type="curve" smooth="yes"/>
      <point x="474" y="779"/>
      <point x="398" y="726"/>
      <point x="311" y="726" type="curve" smooth="yes"/>
      <point x="207" y="726"/>
      <point x="180" y="790"/>
      <point x="190" y="883" type="curve"/>
      <point x="112" y="887" type="line"/>
      <point x="99" y="755"/>
      <point x="154" y="663"/>
    </contour>
    <contour>
      <point x="1201" y="-17" type="line"/>
      <point x="1271" y="-17" type="line"/>
      <point x="1305" y="297" type="line"/>
      <point x="1437" y="297" type="line"/>
      <point x="1444" y="358" type="line"/>
      <point x="1311" y="358" type="line"/>
      <point x="1389" y="1102" type="line"/>
      <point x="1313" y="1102" type="line"/>
      <point x="915" y="354" type="line"/>
      <point x="909" y="297" type="line"/>
      <point x="1234" y="297" type="line"/>
    </contour>
    <contour>
      <point x="354" y="0" type="line"/>
      <point x="430" y="0" type="line"/>
      <point x="1208" y="1658" type="line"/>
      <point x="1134" y="1658" type="line"/>
    </contour>
    <contour>
      <point x="986" y="358" type="line"/>
      <point x="1306" y="981" type="line"/>
      <point x="1241" y="358" type="line"/>
    </contour>
  </outline>
</glyph>
<glyph name="AE" format="1">
  <advance width="1285"/>
  <unicode hex="00C6"/>
  <outline>
    <contour>
      <point x="-51" y="0" type="line"/>
      <point x="27" y="0" type="line"/>
      <point x="258" y="469" type="line"/>
      <point x="667" y="469" type="line"/>
      <point x="617" y="0" type="line"/>
      <point x="1174" y="0" type="line"/>
      <point x="1182" y="69" type="line"/>
      <point x="700" y="69" type="line"/>
      <point x="779" y="834" type="line"/>
      <point x="1127" y="834" type="line"/>
      <point x="1135" y="894" type="line"/>
      <point x="786" y="894" type="line"/>
      <point x="858" y="1590" type="line"/>
      <point x="1340" y="1590" type="line"/>
      <point x="1348" y="1658" type="line"/>
      <point x="751" y="1658" type="line"/>
    </contour>
    <contour>
      <point x="289" y="537" type="line"/>
      <point x="779" y="1576" type="line"/>
      <point x="672" y="537" type="line"/>
    </contour>
  </outline>
</glyph>
<glyph name="Eth" format="1">
  <advance width="1174"/>
  <unicode hex="00D0"/>
  <outline>
    <contour>
      <point x="204" y="66" type="line"/>
      <point x="287" y="848" type="line"/>
      <point x="497" y="848" type="line"/>
      <point x="503" y="907" type="line"/>
      <point x="292" y="907" type="line"/>
      <point x="364" y="1592" type="line"/>
      <point x="650" y="1592" type="line" smooth="yes"/>
      <point x="910" y="1592"/>
      <point x="960" y="1426"/>
      <point x="934" y="1186" type="curve" smooth="yes"/>
      <point x="861" y="483" type="line" smooth="yes"/>
      <point x="839" y="269"/>
      <point x="768" y="66"/>
      <point x="495" y="66" type="curve" smooth="yes"/>
    </contour>
    <contour>
      <point x="118" y="0" type="line"/>
      <point x="491" y="0" type="line" smooth="yes"/>
      <point x="803" y="0"/>
      <point x="912" y="213"/>
      <point x="940" y="480" type="curve" smooth="yes"/>
      <point x="1014" y="1190" type="line" smooth="yes"/>
      <point x="1040" y="1436"/>
      <point x="976" y="1658"/>
      <point x="658" y="1658" type="curve" smooth="yes"/>
      <point x="292" y="1658" type="line"/>
      <point x="214" y="907" type="line"/>
      <point x="70" y="907" type="line"/>
      <point x="64" y="848" type="line"/>
      <point x="208" y="848" type="line"/>
    </contour>
  </outline>
</glyph>
<glyph name="Oslash" format="1">
  <advance width="1060"/>
  <unicode hex="00D8"/>
  <outline>
    <contour>
      <point x="181" y="-206" type="line"/>
      <point x="994" y="1832" type="line"/>
      <point x="951" y="1844" type="line"/>
      <point x="138" y="-193" type="line"/>
    </contour>
    <component base="O"/>
  </outline>
</glyph>
<glyph name="germandbls" format="1">
  <advance width="975"/>
  <unicode hex="00DF"/>
  <outline>
    <contour>
      <point x="276" y="-23" type="line"/>
      <point x="761" y="-23"/>
      <point x="872" y="272"/>
      <point x="895" y="496" type="curve"/>
      <point x="916" y="691"/>
      <point x="878" y="900"/>
      <point x="652" y="949" type="curve"/>
      <point x="792" y="984"/>
      <point x="869" y="1114"/>
      <point x="890" y="1313" type="curve" smooth="yes"/>
      <point x="918" y="1581"/>
      <point x="796" y="1704"/>
      <point x="605" y="1704" type="curve" smooth="yes"/>
      <point x="391" y="1704"/>
      <point x="265" y="1628"/>
      <point x="225" y="1249" type="curve" smooth="yes"/>
      <point x="94" y="0" type="line"/>
      <point x="172" y="0" type="line"/>
      <point x="303" y="1251" type="line"/>
      <point x="340" y="1597"/>
      <point x="444" y="1645"/>
      <point x="596" y="1645" type="curve" smooth="yes"/>
      <point x="768" y="1645"/>
      <point x="838" y="1534"/>
      <point x="814" y="1312" type="curve" smooth="yes"/>
      <point x="795" y="1129"/>
      <point x="722" y="978"/>
      <point x="531" y="978" type="curve"/>
      <point x="518" y="912" type="line"/>
      <point x="793" y="912"/>
      <point x="841" y="694"/>
      <point x="820" y="490" type="curve" smooth="yes"/>
      <point x="800" y="299"/>
      <point x="702" y="43"/>
      <point x="283" y="43" type="curve"/>
    </contour>
  </outline>
</glyph>
<glyph name="divide" format="1">
  <advance width="669"/>
  <unicode hex="00F7"/>
  <outline>
    <contour>
      <point x="302" y="453" type="line"/>
      <point x="383" y="453" type="line"/>
      <point x="398" y="595" type="line"/>
      <point x="317" y="595" type="line"/>
    </contour>
    <contour>
      <point x="115" y="827" type="line"/>
      <point x="647" y="827" type="line"/>
      <point x="654" y="894" type="line"/>
      <point x="121" y="894" type="line"/>
    </contour>
    <contour>
      <point x="370" y="1103" type="line"/>
      <point x="451" y="1103" type="line"/>
      <point x="466" y="1245" type="line"/>
      <point x="385" y="1245" type="line"/>
    </contour>
  </outline>
</glyph>
<glyph name="hbar" format="1">
  <advance width="770"/>
  <unicode hex="0127"/>
  <outline>
    <contour>
      <point x="75" y="0" type="line"/>
      <point x="153" y="0" type="line"/>
      <point x="257" y="999" type="line"/>
      <point x="342" y="1084"/>
      <point x="440" y="1143"/>
      <point x="528" y="1143" type="curve" smooth="yes"/>
      <point x="603" y="1143"/>
      <point x="656" y="1105"/>
      <point x="639" y="943" type="curve" smooth="yes"/>
      <point x="540" y="0" type="line"/>
      <point x="619" y="0" type="line"/>
      <point x="718" y="941" type="line" smooth="yes"/>
      <point x="740" y="1150"/>
      <point x="652" y="1204"/>
      <point x="557" y="1204" type="curve" smooth="yes"/>
      <point x="451" y="1204"/>
      <point x="347" y="1147"/>
      <point x="264" y="1057" type="curve"/>
      <point x="305" y="1442" type="line"/>
      <point x="545" y="1442" type="line"/>
      <point x="550" y="1498" type="line"/>
      <point x="310" y="1498" type="line"/>
      <point x="327" y="1658" type="line"/>
      <point x="249" y="1658" type="line"/>
      <point x="233" y="1498" type="line"/>
      <point x="97" y="1498" type="line"/>
      <point x="92" y="1442" type="line"/>
      <point x="227" y="1442" type="line"/>
    </contour>
  </outline>
</glyph>
<glyph name="Lslash" format="1">
  <advance width="750"/>
  <unicode hex="0141"/>
  <outline>
    <contour>
      <point x="118" y="0" type="line"/>
      <point x="720" y="0" type="line"/>
      <point x="727" y="66" type="line"/>
      <point x="204" y="66" type="line"/>
      <point x="291" y="894" type="line"/>
      <point x="564" y="1025" type="line"/>
      <point x="571" y="1092" type="line"/>
      <point x="298" y="961" type="line"/>
      <point x="371" y="1658" type="line"/>
      <point x="292" y="1658" type="line"/>
      <point x="215" y="919" type="line"/>
      <point x="59" y="844" type="line"/>
      <point x="53" y="777" type="line"/>
      <point x="208" y="852" type="line"/>
    </contour>
  </outline>
</glyph>
<glyph name="OE" format="1">
  <advance width="1234"/>
  <unicode hex="0152"/>
  <outline>
    <contour>
      <point x="493" y="0" type="curve" smooth="yes"/>
      <point x="1130" y="0" type="line"/>
      <point x="1138" y="71" type="line"/>
      <point x="734" y="71" type="line"/>
      <point x="814" y="838" type="line"/>
      <point x="1153" y="838" type="line"/>
      <point x="1159" y="903" type="line"/>
      <point x="820" y="903" type="line"/>
      <point x="893" y="1588" type="line"/>
      <point x="1297" y="1588" type="line"/>
      <point x="1304" y="1658" type="line"/>
      <point x="665" y="1658" type="line"/>
      <point x="356" y="1658"/>
      <point x="236" y="1461"/>
      <point x="209" y="1199" type="curve" smooth="yes"/>
      <point x="131" y="458" type="line" smooth="yes"/>
      <point x="104" y="209"/>
      <point x="170" y="0"/>
    </contour>
    <contour>
      <point x="501" y="72" type="line"/>
      <point x="244" y="72"/>
      <point x="185" y="230"/>
      <point x="209" y="451" type="curve" smooth="yes"/>
      <point x="288" y="1204" type="line" smooth="yes"/>
      <point x="312" y="1433"/>
      <point x="400" y="1589"/>
      <point x="660" y="1589" type="curve" smooth="yes"/>
      <point x="816" y="1589" type="line"/>
      <point x="657" y="72" type="line"/>
    </contour>
  </outline>
</glyph>
<glyph name="oe" format="1">
  <advance width="1251"/>
  <unicode hex="0153"/>
  <outline>
    <contour>
      <point x="340" y="-20" type="curve" smooth="yes"/>
      <point x="479" y="-20"/>
      <point x="568" y="48"/>
      <point x="610" y="189" type="curve"/>
      <point x="631" y="28"/>
      <point x="730" y="-19"/>
      <point x="835" y="-20" type="curve" smooth="yes"/>
      <point x="1053" y="-20"/>
      <point x="1130" y="114"/>
      <point x="1151" y="307" type="curve" smooth="yes"/>
      <point x="1161" y="397" type="line"/>
      <point x="1084" y="397" type="line"/>
      <point x="1074" y="304" type="line" smooth="yes"/>
      <point x="1046" y="43"/>
      <point x="922" y="41"/>
      <point x="841" y="42" type="curve" smooth="yes"/>
      <point x="704" y="43"/>
      <point x="640" y="119"/>
      <point x="673" y="438" type="curve" smooth="yes"/>
      <point x="693" y="628" type="line"/>
      <point x="1182" y="628" type="line"/>
      <point x="1198" y="746" type="line"/>
      <point x="1234" y="1090"/>
      <point x="1167" y="1204"/>
      <point x="969" y="1204" type="curve" smooth="yes"/>
      <point x="861" y="1204"/>
      <point x="756" y="1170"/>
      <point x="696" y="1009" type="curve"/>
      <point x="682" y="1135"/>
      <point x="606" y="1204"/>
      <point x="469" y="1204" type="curve" smooth="yes"/>
      <point x="241" y="1204"/>
      <point x="168" y="1051"/>
      <point x="136" y="749" type="curve"/>
      <point x="103" y="435" type="line" smooth="yes"/>
      <point x="70" y="130"/>
      <point x="112" y="-20"/>
    </contour>
    <contour>
      <point x="346" y="42" type="curve" smooth="yes"/>
      <point x="161" y="42"/>
      <point x="154" y="181"/>
      <point x="181" y="435" type="curve" smooth="yes"/>
      <point x="214" y="749" type="line" smooth="yes"/>
      <point x="240" y="1003"/>
      <point x="277" y="1142"/>
      <point x="462" y="1142" type="curve" smooth="yes"/>
      <point x="647" y="1142"/>
      <point x="654" y="1003"/>
      <point x="629" y="749" type="curve" smooth="yes"/>
      <point x="595" y="435" type="line" smooth="yes"/>
      <point x="568" y="181"/>
      <point x="531" y="42"/>
    </contour>
    <contour>
      <point x="699" y="678" type="line"/>
      <point x="708" y="772" type="line" smooth="yes"/>
      <point x="739" y="1070"/>
      <point x="818" y="1142"/>
      <point x="961" y="1142" type="curve" smooth="yes"/>
      <point x="1144" y="1142"/>
      <point x="1146" y="987"/>
      <point x="1122" y="759" type="curve" smooth="yes"/>
      <point x="1113" y="678" type="line"/>
    </contour>
  </outline>
</glyph>
<glyph name="uni0237" format="1">
  <advance width="398"/>
  <unicode hex="0237"/>
  <outline>
    <contour>
      <point x="-105" y="-323" type="line"/>
      <point x="-102" y="-324"/>
      <point x="-61" y="-324"/>
      <point x="-58" y="-324" type="curve" smooth="yes"/>
      <point x="88" y="-324"/>
      <point x="181" y="-264"/>
      <point x="201" y="-73" type="curve" smooth="yes"/>
      <point x="333" y="1184" type="line"/>
      <point x="255" y="1184" type="line"/>
      <point x="124" y="-70" type="line" smooth="yes"/>
      <point x="115" y="-158"/>
      <point x="103" y="-257"/>
      <point x="-53" y="-257" type="curve" smooth="yes"/>
      <point x="-55" y="-257"/>
      <point x="-96" y="-256"/>
      <point x="-98" y="-256" type="curve"/>
    </contour>
  </outline>
</glyph>
<glyph name="circumflex" format="1">
  <advance width="643"/>
  <unicode hex="02C6"/>
  <outline>
    <contour>
      <point x="181" y="1286" type="line"/>
      <point x="236" y="1286" type="line"/>
      <point x="448" y="1620" type="line"/>
      <point x="588" y="1286" type="line"/>
      <point x="640" y="1286" type="line"/>
      <point x="508" y="1658" type="line"/>
      <point x="397" y="1658" type="line"/>
    </contour>
  </outline>
</glyph>
<glyph name="caron" format="1">
  <advance width="532"/>
  <unicode hex="02C7"/>
  <outline>
    <contour>
      <point x="344" y="1332" type="line"/>
      <point x="390" y="1332" type="line"/>
      <point x="597" y="1658" type="line"/>
      <point x="526" y="1658" type="line"/>
      <point x="377" y="1406" type="line"/>
      <point x="279" y="1658" type="line"/>
      <point x="207" y="1658" type="line"/>
    </contour>
  </outline>
</glyph>
<glyph name="hungarumlaut" format="1">
  <advance width="523"/>
  <unicode hex="02DD"/>
  <outline>
    <contour>
      <point x="236" y="1381" type="line"/>
      <point x="282" y="1381" type="line"/>
      <point x="434" y="1686" type="line"/>
      <point x="344" y="1686" type="line"/>
    </contour>
    <contour>
      <point x="394" y="1381" type="line"/>
      <point x="443" y="1381" type="line"/>
      <point x="636" y="1686" type="line"/>
      <point x="536" y="1686" type="line"/>
    </contour>
  </outline>
</glyph>
<glyph name="uni0302" format="1">
  <advance width="643"/>
  <unicode hex="0302"/>
  <outline>
    <contour>
      <point x="181" y="1288" type="line"/>
      <point x="237" y="1288" type="line"/>
      <point x="448" y="1620" type="line"/>
      <point x="589" y="1288" type="line"/>
      <point x="640" y="1288" type="line"/>
      <point x="508" y="1658" type="line"/>
      <point x="397" y="1658" type="line"/>
    </contour>
  </outline>
</glyph>
<glyph name="uni0304" format="1">
  <advance width="799"/>
  <unicode hex="0304"/>
  <outline>
    <contour>
      <point x="359" y="1599" type="line"/>
      <point x="698" y="1599" type="line"/>
      <point x="703" y="1658" type="line"/>
      <point x="365" y="1658" type="line"/>
    </contour>
  </outline>
</glyph>
<glyph name="uni0306" format="1">
  <advance width="741"/>
  <unicode hex="0306"/>
  <outline>
    <contour>
      <point x="484" y="1452" type="curve" smooth="yes"/>
      <point x="599" y="1452"/>
      <point x="709" y="1507"/>
      <point x="733" y="1658" type="curve"/>
      <point x="672" y="1658" type="line"/>
      <point x="651" y="1544"/>
      <point x="570" y="1507"/>
      <point x="489" y="1507" type="curve" smooth="yes"/>
      <point x="408" y="1507"/>
      <point x="336" y="1544"/>
      <point x="343" y="1658" type="curve"/>
      <point x="282" y="1658" type="line"/>
      <point x="275" y="1507"/>
      <point x="369" y="1452"/>
    </contour>
  </outline>
</glyph>
<glyph name="uni0307" format="1">
  <advance width="0"/>
  <unicode hex="0307"/>
  <outline>
    <contour>
      <point x="78" y="1453" type="line"/>
      <point x="173" y="1453" type="line"/>
      <point x="194" y="1658" type="line"/>
      <point x="100" y="1658" type="line"/>
    </contour>
  </outline>
</glyph>
<glyph name="uni030F" format="1">
  <advance width="537"/>
  <unicode hex="030F"/>
  <outline>
    <contour>
      <point x="328" y="1372" type="line"/>
      <point x="371" y="1372" type="line"/>
      <point x="288" y="1658" type="line"/>
      <point x="195" y="1658" type="line"/>
    </contour>
    <contour>
      <point x="510" y="1372" type="line"/>
      <point x="550" y="1372" type="line"/>
      <point x="492" y="1658" type="line"/>
      <point x="406" y="1658" type="line"/>
    </contour>
  </outline>
</glyph>
<glyph name="uni0311" format="1">
  <advance width="741"/>
  <unicode hex="0311"/>
  <outline>
    <contour>
      <point x="263" y="1452" type="curve"/>
      <point x="324" y="1452" type="line"/>
      <point x="344" y="1566"/>
      <point x="424" y="1603"/>
      <point x="505" y="1603" type="curve" smooth="yes"/>
      <point x="586" y="1603"/>
      <point x="656" y="1566"/>
      <point x="649" y="1452" type="curve"/>
      <point x="710" y="1452" type="line"/>
      <point x="717" y="1603"/>
      <point x="625" y="1658"/>
      <point x="510" y="1658" type="curve" smooth="yes"/>
      <point x="395" y="1658"/>
      <point x="286" y="1603"/>
    </contour>
  </outline>
</glyph>
<glyph name="Pi" format="1">
  <advance width="1150"/>
  <unicode hex="03A0"/>
  <outline>
    <contour>
      <point x="117" y="0" type="line"/>
      <point x="195" y="0" type="line"/>
      <point x="363" y="1596" type="line"/>
      <point x="1041" y="1596" type="line"/>
      <point x="873" y="0" type="line"/>
      <point x="951" y="0" type="line"/>
      <point x="1125" y="1658" type="line"/>
      <point x="291" y="1658" type="line"/>
    </contour>
  </outline>
</glyph>
<glyph name="pi" format="1">
  <advance width="828"/>
  <unicode hex="03C0"/>
  <outline>
    <contour>
      <point x="106" y="0" type="line"/>
      <point x="184" y="0" type="line"/>
      <point x="302" y="1121" type="line"/>
      <point x="639" y="1121" type="line"/>
      <point x="551" y="288" type="line" smooth="yes"/>
      <point x="530" y="81"/>
      <point x="548" y="-2"/>
      <point x="707" y="-2" type="curve"/>
      <point x="728" y="68" type="line"/>
      <point x="607" y="68"/>
      <point x="610" y="115"/>
      <point x="629" y="290" type="curve" smooth="yes"/>
      <point x="717" y="1121" type="line"/>
      <point x="850" y="1121" type="line"/>
      <point x="856" y="1184" type="line"/>
      <point x="111" y="1184" type="line"/>
      <point x="105" y="1121" type="line"/>
      <point x="224" y="1121" type="line"/>
    </contour>
  </outline>
</glyph>
<glyph name="afii10055" format="1">
  <advance width="399"/>
  <unicode hex="0406"/>
  <outline>
    <contour>
      <point x="119" y="0" type="line"/>
      <point x="198" y="0" type="line"/>
      <point x="372" y="1658" type="line"/>
      <point x="293" y="1658" type="line"/>
    </contour>
  </outline>
</glyph>
<glyph name="afii10058" format="1">
  <advance width="1643"/>
  <unicode hex="0409"/>
  <outline>
    <contour>
      <point x="6" y="-6" type="line"/>
      <point x="26" y="-7" type="line" smooth="yes"/>
      <point x="304" y="-8"/>
      <point x="330" y="172"/>
      <point x="432" y="707" type="curve" smooth="yes"/>
      <point x="603" y="1595" type="line"/>
      <point x="1002" y="1595" type="line"/>
      <point x="834" y="0" type="line"/>
      <point x="1132" y="0" type="line" smooth="yes"/>
      <point x="1443" y="0"/>
      <point x="1571" y="209"/>
      <point x="1598" y="465" type="curve" smooth="yes"/>
      <point x="1631" y="775"/>
      <point x="1520" y="957"/>
      <point x="1230" y="957" type="curve" smooth="yes"/>
      <point x="1013" y="957" type="line"/>
      <point x="1087" y="1658" type="line"/>
      <point x="532" y="1658" type="line"/>
      <point x="355" y="707" type="line" smooth="yes"/>
      <point x="256" y="182"/>
      <point x="246" y="58"/>
      <point x="13" y="59" type="curve"/>
    </contour>
    <contour>
      <point x="920" y="70" type="line"/>
      <point x="1006" y="887" type="line"/>
      <point x="1228" y="887" type="line" smooth="yes"/>
      <point x="1475" y="887"/>
      <point x="1541" y="720"/>
      <point x="1515" y="468" type="curve" smooth="yes"/>
      <point x="1489" y="228"/>
      <point x="1395" y="70"/>
      <point x="1142" y="70" type="curve" smooth="yes"/>
    </contour>
  </outline>
</glyph>
<glyph name="afii10060" format="1">
  <advance width="863"/>
  <unicode hex="040B"/>
  <outline>
    <contour>
      <point x="173" y="0" type="line"/>
      <point x="251" y="0" type="line"/>
      <point x="339" y="831" type="line"/>
      <point x="415" y="896"/>
      <point x="492" y="934"/>
      <point x="581" y="934" type="curve" smooth="yes"/>
      <point x="656" y="934"/>
      <point x="728" y="903"/>
      <point x="714" y="771" type="curve" smooth="yes"/>
      <point x="633" y="0" type="line"/>
      <point x="712" y="0" type="line"/>
      <point x="793" y="769" type="line" smooth="yes"/>
      <point x="811" y="943"/>
      <point x="692" y="984"/>
      <point x="597" y="984" type="curve" smooth="yes"/>
      <point x="493" y="984"/>
      <point x="403" y="940"/>
      <point x="345" y="892" type="curve"/>
      <point x="418" y="1592" type="line"/>
      <point x="775" y="1592" type="line"/>
      <point x="782" y="1658" type="line"/>
      <point x="-12" y="1658" type="line"/>
      <point x="-19" y="1592" type="line"/>
      <point x="340" y="1592" type="line"/>
    </contour>
  </outline>
</glyph>
<glyph name="afii10145" format="1">
  <advance width="1026"/>
  <unicode hex="040F"/>
  <outline>
    <contour>
      <point x="433" y="-267" type="line"/>
      <point x="495" y="-267" type="line"/>
      <point x="533" y="0" type="line"/>
      <point x="826" y="0" type="line"/>
      <point x="1000" y="1658" type="line"/>
      <point x="921" y="1658" type="line"/>
      <point x="753" y="62" type="line"/>
      <point x="203" y="62" type="line"/>
      <point x="371" y="1658" type="line"/>
      <point x="292" y="1658" type="line"/>
      <point x="118" y="0" type="line"/>
      <point x="451" y="0" type="line"/>
    </contour>
  </outline>
</glyph>
<glyph name="afii10018" format="1">
  <advance width="948"/>
  <unicode hex="0411"/>
  <outline>
    <contour>
      <point x="117" y="0" type="line"/>
      <point x="417" y="0" type="line" smooth="yes"/>
      <point x="728" y="0"/>
      <point x="856" y="209"/>
      <point x="883" y="465" type="curve" smooth="yes"/>
      <point x="916" y="775"/>
      <point x="806" y="957"/>
      <point x="515" y="957" type="curve" smooth="yes"/>
      <point x="296" y="957" type="line"/>
      <point x="364" y="1596" type="line"/>
      <point x="903" y="1596" type="line"/>
      <point x="910" y="1658" type="line"/>
      <point x="291" y="1658" type="line"/>
    </contour>
    <contour>
      <point x="203" y="70" type="line"/>
      <point x="289" y="887" type="line"/>
      <point x="513" y="887" type="line" smooth="yes"/>
      <point x="760" y="887"/>
      <point x="827" y="720"/>
      <point x="800" y="468" type="curve" smooth="yes"/>
      <point x="775" y="228"/>
      <point x="680" y="70"/>
      <point x="428" y="70" type="curve" smooth="yes"/>
    </contour>
  </outline>
</glyph>
<glyph name="afii10019" format="1">
  <advance width="979"/>
  <unicode hex="0412"/>
  <outline>
    <contour>
      <point x="118" y="0" type="line"/>
      <point x="497" y="0" type="line" smooth="yes"/>
      <point x="823" y="0"/>
      <point x="877" y="245"/>
      <point x="902" y="485" type="curve" smooth="yes"/>
      <point x="915" y="609"/>
      <point x="915" y="835"/>
      <point x="729" y="894" type="curve"/>
      <point x="894" y="940"/>
      <point x="936" y="1132"/>
      <point x="948" y="1246" type="curve" smooth="yes"/>
      <point x="971" y="1460"/>
      <point x="930" y="1658"/>
      <point x="624" y="1658" type="curve" smooth="yes"/>
      <point x="292" y="1658" type="line"/>
    </contour>
    <contour>
      <point x="204" y="66" type="line"/>
      <point x="287" y="857" type="line"/>
      <point x="609" y="857" type="line" smooth="yes"/>
      <point x="807" y="857"/>
      <point x="845" y="678"/>
      <point x="824" y="484" type="curve" smooth="yes"/>
      <point x="794" y="201"/>
      <point x="724" y="66"/>
      <point x="501" y="66" type="curve" smooth="yes"/>
    </contour>
    <contour>
      <point x="294" y="921" type="line"/>
      <point x="364" y="1592" type="line"/>
      <point x="612" y="1592" type="line" smooth="yes"/>
      <point x="877" y="1592"/>
      <point x="891" y="1418"/>
      <point x="872" y="1246" type="curve" smooth="yes"/>
      <point x="855" y="1082"/>
      <point x="794" y="921"/>
      <point x="613" y="921" type="curve" smooth="yes"/>
    </contour>
  </outline>
</glyph>
<glyph name="afii10020" format="1">
  <advance width="745"/>
  <unicode hex="0413"/>
  <outline>
    <contour>
      <point x="118" y="0" type="line"/>
      <point x="197" y="0" type="line"/>
      <point x="364" y="1592" type="line"/>
      <point x="831" y="1592" type="line"/>
      <point x="838" y="1658" type="line"/>
      <point x="292" y="1658" type="line"/>
    </contour>
  </outline>
</glyph>
<glyph name="afii10026" format="1">
  <advance width="1049"/>
  <unicode hex="0418"/>
  <outline>
    <contour>
      <point x="117" y="0" type="line"/>
      <point x="190" y="0" type="line"/>
      <point x="935" y="1481" type="line"/>
      <point x="780" y="0" type="line"/>
      <point x="850" y="0" type="line"/>
      <point x="1024" y="1658" type="line"/>
      <point x="953" y="1658" type="line"/>
      <point x="206" y="170" type="line"/>
      <point x="362" y="1658" type="line"/>
      <point x="291" y="1658" type="line"/>
    </contour>
  </outline>
</glyph>
<glyph name="afii10033" format="1">
  <advance width="1100"/>
  <unicode hex="041F"/>
  <outline>
    <contour>
      <point x="118" y="0" type="line"/>
      <point x="197" y="0" type="line"/>
      <point x="365" y="1596" type="line"/>
      <point x="989" y="1596" type="line"/>
      <point x="821" y="0" type="line"/>
      <point x="900" y="0" type="line"/>
      <point x="1074" y="1658" type="line"/>
      <point x="292" y="1658" type="line"/>
    </contour>
  </outline>
</glyph>
<glyph name="afii10034" format="1">
  <advance width="976"/>
  <unicode hex="0420"/>
  <outline>
    <contour>
      <point x="118" y="0" type="line"/>
      <point x="197" y="0" type="line"/>
      <point x="281" y="798" type="line"/>
      <point x="589" y="798" type="line" smooth="yes"/>
      <point x="891" y="798"/>
      <point x="989" y="1031"/>
      <point x="1012" y="1238" type="curve" smooth="yes"/>
      <point x="1036" y="1474"/>
      <point x="975" y="1658"/>
      <point x="676" y="1658" type="curve" smooth="yes"/>
      <point x="292" y="1658" type="line"/>
    </contour>
    <contour>
      <point x="288" y="862" type="line"/>
      <point x="365" y="1594" type="line"/>
      <point x="664" y="1594" type="line" smooth="yes"/>
      <point x="871" y="1594"/>
      <point x="956" y="1515"/>
      <point x="927" y="1238" type="curve" smooth="yes"/>
      <point x="898" y="967"/>
      <point x="785" y="862"/>
      <point x="585" y="862" type="curve" smooth="yes"/>
    </contour>
  </outline>
</glyph>
<glyph name="afii10038" format="1">
  <advance width="1176"/>
  <unicode hex="0424"/>
  <outline>
    <contour>
      <point x="492" y="-125" type="line"/>
      <point x="571" y="-125" type="line"/>
      <point x="604" y="179" type="line"/>
      <point x="638" y="176"/>
      <point x="689" y="174"/>
      <point x="712" y="174" type="curve"/>
      <point x="925" y="172"/>
      <point x="1044" y="311"/>
      <point x="1073" y="583" type="curve" smooth="yes"/>
      <point x="1126" y="1087" type="line" smooth="yes"/>
      <point x="1154" y="1365"/>
      <point x="1064" y="1526"/>
      <point x="844" y="1525" type="curve"/>
      <point x="824" y="1525"/>
      <point x="776" y="1523"/>
      <point x="744" y="1520" type="curve"/>
      <point x="774" y="1808" type="line"/>
      <point x="695" y="1808" type="line"/>
      <point x="665" y="1519" type="line"/>
      <point x="637" y="1521"/>
      <point x="597" y="1522"/>
      <point x="582" y="1522" type="curve"/>
      <point x="354" y="1523"/>
      <point x="226" y="1367"/>
      <point x="197" y="1087" type="curve" smooth="yes"/>
      <point x="144" y="583" type="line" smooth="yes"/>
      <point x="116" y="309"/>
      <point x="205" y="172"/>
      <point x="417" y="174" type="curve"/>
      <point x="439" y="174"/>
      <point x="489" y="176"/>
      <point x="524" y="178" type="curve"/>
    </contour>
    <contour>
      <point x="434" y="232" type="curve" smooth="yes"/>
      <point x="256" y="231"/>
      <point x="197" y="354"/>
      <point x="221" y="583" type="curve" smooth="yes"/>
      <point x="274" y="1087" type="line" smooth="yes"/>
      <point x="299" y="1320"/>
      <point x="389" y="1466"/>
      <point x="574" y="1465" type="curve" smooth="yes"/>
      <point x="591" y="1465"/>
      <point x="630" y="1464"/>
      <point x="659" y="1460" type="curve"/>
      <point x="530" y="236" type="line"/>
      <point x="496" y="234"/>
      <point x="454" y="232"/>
    </contour>
    <contour>
      <point x="708" y="232" type="curve" smooth="yes"/>
      <point x="688" y="232"/>
      <point x="642" y="234"/>
      <point x="609" y="237" type="curve"/>
      <point x="738" y="1460" type="line"/>
      <point x="768" y="1463"/>
      <point x="810" y="1465"/>
      <point x="827" y="1465" type="curve" smooth="yes"/>
      <point x="1013" y="1466"/>
      <point x="1073" y="1320"/>
      <point x="1049" y="1087" type="curve" smooth="yes"/>
      <point x="996" y="583" type="line" smooth="yes"/>
      <point x="972" y="354"/>
      <point x="886" y="231"/>
    </contour>
  </outline>
</glyph>
<glyph name="afii10040" format="1">
  <advance width="1099"/>
  <unicode hex="0426"/>
  <outline>
    <contour>
      <point x="907" y="-267" type="line"/>
      <point x="972" y="-267" type="line"/>
      <point x="1007" y="62" type="line"/>
      <point x="904" y="62" type="line"/>
      <point x="1072" y="1658" type="line"/>
      <point x="993" y="1658" type="line"/>
      <point x="826" y="62" type="line"/>
      <point x="202" y="62" type="line"/>
      <point x="370" y="1658" type="line"/>
      <point x="291" y="1658" type="line"/>
      <point x="117" y="0" type="line"/>
      <point x="925" y="0" type="line"/>
    </contour>
  </outline>
</glyph>
<glyph name="afii10042" format="1">
  <advance width="1408"/>
  <unicode hex="0428"/>
  <outline>
    <contour>
      <point x="118" y="0" type="line"/>
      <point x="1209" y="0" type="line"/>
      <point x="1383" y="1658" type="line"/>
      <point x="1304" y="1658" type="line"/>
      <point x="1136" y="62" type="line"/>
      <point x="717" y="62" type="line"/>
      <point x="885" y="1658" type="line"/>
      <point x="806" y="1658" type="line"/>
      <point x="638" y="62" type="line"/>
      <point x="203" y="62" type="line"/>
      <point x="371" y="1658" type="line"/>
      <point x="292" y="1658" type="line"/>
    </contour>
  </outline>
</glyph>
<glyph name="afii10044" format="1">
  <advance width="1095"/>
  <unicode hex="042A"/>
  <outline>
    <contour>
      <point x="287" y="0" type="line"/>
      <point x="588" y="0" type="line" smooth="yes"/>
      <point x="900" y="0"/>
      <point x="1027" y="209"/>
      <point x="1054" y="465" type="curve" smooth="yes"/>
      <point x="1087" y="775"/>
      <point x="977" y="957"/>
      <point x="686" y="957" type="curve" smooth="yes"/>
      <point x="466" y="957" type="line"/>
      <point x="540" y="1658" type="line"/>
      <point x="148" y="1658" type="line"/>
      <point x="142" y="1594" type="line"/>
      <point x="455" y="1594" type="line"/>
    </contour>
    <contour>
      <point x="373" y="70" type="line"/>
      <point x="459" y="887" type="line"/>
      <point x="684" y="887" type="line" smooth="yes"/>
      <point x="931" y="887"/>
      <point x="998" y="720"/>
      <point x="971" y="468" type="curve" smooth="yes"/>
      <point x="946" y="228"/>
      <point x="851" y="70"/>
      <point x="599" y="70" type="curve" smooth="yes"/>
    </contour>
  </outline>
</glyph>
<glyph name="afii10045" format="1">
  <advance width="1338"/>
  <unicode hex="042B"/>
  <outline>
    <contour>
      <point x="117" y="0" type="line"/>
      <point x="418" y="0" type="line" smooth="yes"/>
      <point x="730" y="0"/>
      <point x="857" y="209"/>
      <point x="884" y="465" type="curve" smooth="yes"/>
      <point x="917" y="775"/>
      <point x="807" y="957"/>
      <point x="516" y="957" type="curve" smooth="yes"/>
      <point x="296" y="957" type="line"/>
      <point x="370" y="1658" type="line"/>
      <point x="291" y="1658" type="line"/>
    </contour>
    <contour>
      <point x="203" y="70" type="line"/>
      <point x="289" y="887" type="line"/>
      <point x="514" y="887" type="line" smooth="yes"/>
      <point x="761" y="887"/>
      <point x="828" y="720"/>
      <point x="801" y="468" type="curve" smooth="yes"/>
      <point x="776" y="228"/>
      <point x="681" y="70"/>
      <point x="429" y="70" type="curve" smooth="yes"/>
    </contour>
    <contour>
      <point x="1060" y="0" type="line"/>
      <point x="1139" y="0" type="line"/>
      <point x="1313" y="1658" type="line"/>
      <point x="1234" y="1658" type="line"/>
    </contour>
  </outline>
</glyph>
<glyph name="afii10048" format="1">
  <advance width="1339"/>
  <unicode hex="042E"/>
  <outline>
    <contour>
      <point x="768" y="-23" type="curve" smooth="yes"/>
      <point x="1086" y="-23"/>
      <point x="1194" y="184"/>
      <point x="1222" y="455" type="curve" smooth="yes"/>
      <point x="1301" y="1206" type="line" smooth="yes"/>
      <point x="1330" y="1474"/>
      <point x="1254" y="1678"/>
      <point x="947" y="1678" type="curve" smooth="yes"/>
      <point x="640" y="1678"/>
      <point x="523" y="1480"/>
      <point x="495" y="1208" type="curve" smooth="yes"/>
      <point x="458" y="867" type="line"/>
      <point x="287" y="867" type="line"/>
      <point x="370" y="1658" type="line"/>
      <point x="292" y="1658" type="line"/>
      <point x="118" y="0" type="line"/>
      <point x="196" y="0" type="line"/>
      <point x="280" y="800" type="line"/>
      <point x="452" y="800" type="line"/>
      <point x="416" y="458" type="line"/>
      <point x="388" y="188"/>
      <point x="449" y="-23"/>
    </contour>
    <contour>
      <point x="779" y="44" type="curve" smooth="yes"/>
      <point x="521" y="44"/>
      <point x="466" y="204"/>
      <point x="491" y="441" type="curve" smooth="yes"/>
      <point x="572" y="1217" type="line" smooth="yes"/>
      <point x="597" y="1454"/>
      <point x="688" y="1612"/>
      <point x="941" y="1612" type="curve" smooth="yes"/>
      <point x="1193" y="1612"/>
      <point x="1250" y="1453"/>
      <point x="1226" y="1217" type="curve" smooth="yes"/>
      <point x="1144" y="441" type="line" smooth="yes"/>
      <point x="1120" y="205"/>
      <point x="1031" y="44"/>
    </contour>
  </outline>
</glyph>
<glyph name="afii10049" format="1">
  <advance width="1068"/>
  <unicode hex="042F"/>
  <outline>
    <contour>
      <point x="13" y="0" type="line"/>
      <point x="99" y="0" type="line"/>
      <point x="488" y="739" type="line"/>
      <point x="514" y="735"/>
      <point x="546" y="732"/>
      <point x="577" y="732" type="curve"/>
      <point x="867" y="732" type="line"/>
      <point x="790" y="0" type="line"/>
      <point x="869" y="0" type="line"/>
      <point x="1043" y="1658" type="line"/>
      <point x="675" y="1658" type="line" smooth="yes"/>
      <point x="363" y="1658"/>
      <point x="255" y="1445"/>
      <point x="231" y="1218" type="curve" smooth="yes"/>
      <point x="209" y="1005"/>
      <point x="249" y="818"/>
      <point x="418" y="758" type="curve"/>
    </contour>
    <contour>
      <point x="588" y="796" type="line"/>
      <point x="355" y="796"/>
      <point x="281" y="941"/>
      <point x="310" y="1217" type="curve" smooth="yes"/>
      <point x="338" y="1489"/>
      <point x="467" y="1593"/>
      <point x="668" y="1593" type="curve" smooth="yes"/>
      <point x="957" y="1593" type="line"/>
      <point x="874" y="796" type="line"/>
    </contour>
  </outline>
</glyph>
<glyph name="afii10066" format="1">
  <advance width="900"/>
  <unicode hex="0431"/>
  <outline>
    <contour>
      <point x="425" y="-20" type="curve" smooth="yes"/>
      <point x="637" y="-13"/>
      <point x="767" y="85"/>
      <point x="805" y="449" type="curve" smooth="yes"/>
      <point x="825" y="637" type="line" smooth="yes"/>
      <point x="862" y="993"/>
      <point x="787" y="1118"/>
      <point x="586" y="1118" type="curve" smooth="yes"/>
      <point x="475" y="1117"/>
      <point x="322" y="1051"/>
      <point x="273" y="997" type="curve"/>
      <point x="289" y="1154" type="line"/>
      <point x="340" y="1642"/>
      <point x="509" y="1495"/>
      <point x="832" y="1613" type="curve"/>
      <point x="835" y="1690" type="line"/>
      <point x="496" y="1551"/>
      <point x="270" y="1714"/>
      <point x="210" y="1143" type="curve"/>
      <point x="127" y="355" type="line" smooth="yes"/>
      <point x="98" y="81"/>
      <point x="268" y="-24"/>
    </contour>
    <contour>
      <point x="432" y="40" type="curve" smooth="yes"/>
      <point x="303" y="37"/>
      <point x="181" y="125"/>
      <point x="205" y="354" type="curve" smooth="yes"/>
      <point x="266" y="934" type="line" smooth="yes"/>
      <point x="317" y="984"/>
      <point x="476" y="1059"/>
      <point x="575" y="1059" type="curve" smooth="yes"/>
      <point x="736" y="1059"/>
      <point x="781" y="964"/>
      <point x="748" y="644" type="curve" smooth="yes"/>
      <point x="727" y="439" type="line" smooth="yes"/>
      <point x="693" y="118"/>
      <point x="598" y="45"/>
    </contour>
  </outline>
</glyph>
<glyph name="afii10072" format="1">
  <advance width="996"/>
  <unicode hex="0436"/>
  <outline>
    <contour>
      <point x="-33" y="0" type="line"/>
      <point x="43" y="0" type="line"/>
      <point x="464" y="593" type="line"/>
      <point x="487" y="593" type="line"/>
      <point x="425" y="0" type="line"/>
      <point x="492" y="0" type="line"/>
      <point x="555" y="593" type="line"/>
      <point x="575" y="593" type="line"/>
      <point x="871" y="0" type="line"/>
      <point x="947" y="0" type="line"/>
      <point x="638" y="609" type="line"/>
      <point x="1053" y="1184" type="line"/>
      <point x="979" y="1184" type="line"/>
      <point x="577" y="619" type="line"/>
      <point x="557" y="619" type="line"/>
      <point x="617" y="1184" type="line"/>
      <point x="549" y="1184" type="line"/>
      <point x="490" y="619" type="line"/>
      <point x="469" y="619" type="line"/>
      <point x="182" y="1184" type="line"/>
      <point x="108" y="1184" type="line"/>
      <point x="404" y="609" type="line"/>
    </contour>
  </outline>
</glyph>
<glyph name="afii10073" format="1">
  <advance width="724"/>
  <unicode hex="0437"/>
  <outline>
    <contour>
      <point x="318" y="-20" type="curve" smooth="yes"/>
      <point x="500" y="-23"/>
      <point x="623" y="109"/>
      <point x="640" y="316" type="curve" smooth="yes"/>
      <point x="655" y="491"/>
      <point x="578" y="580"/>
      <point x="465" y="619" type="curve"/>
      <point x="584" y="641"/>
      <point x="675" y="733"/>
      <point x="694" y="876" type="curve" smooth="yes"/>
      <point x="718" y="1052"/>
      <point x="650" y="1204"/>
      <point x="456" y="1204" type="curve" smooth="yes"/>
      <point x="278" y="1204"/>
      <point x="161" y="1100"/>
      <point x="140" y="905" type="curve"/>
      <point x="214" y="905" type="line"/>
      <point x="230" y="1057"/>
      <point x="320" y="1144"/>
      <point x="449" y="1144" type="curve" smooth="yes"/>
      <point x="593" y="1144"/>
      <point x="642" y="1010"/>
      <point x="619" y="872" type="curve" smooth="yes"/>
      <point x="596" y="743"/>
      <point x="532" y="650"/>
      <point x="341" y="650" type="curve"/>
      <point x="334" y="585" type="line"/>
      <point x="517" y="585"/>
      <point x="576" y="468"/>
      <point x="565" y="318" type="curve" smooth="yes"/>
      <point x="551" y="135"/>
      <point x="460" y="38"/>
      <point x="324" y="39" type="curve" smooth="yes"/>
      <point x="182" y="41"/>
      <point x="136" y="141"/>
      <point x="153" y="300" type="curve"/>
      <point x="78" y="300" type="line"/>
      <point x="56" y="98"/>
      <point x="142" y="-17"/>
    </contour>
  </outline>
</glyph>
<glyph name="afii10076" format="1">
  <advance width="738"/>
  <unicode hex="043A"/>
  <outline>
    <contour>
      <point x="77" y="0" type="line"/>
      <point x="154" y="0" type="line"/>
      <point x="216" y="585" type="line"/>
      <point x="325" y="585" type="line"/>
      <point x="597" y="0" type="line"/>
      <point x="678" y="0" type="line"/>
      <point x="399" y="614" type="line"/>
      <point x="787" y="1184" type="line"/>
      <point x="704" y="1184" type="line"/>
      <point x="331" y="639" type="line"/>
      <point x="222" y="639" type="line"/>
      <point x="278" y="1184" type="line"/>
      <point x="201" y="1184" type="line"/>
    </contour>
  </outline>
</glyph>
<glyph name="afii10078" format="1">
  <advance width="943"/>
  <unicode hex="043C"/>
  <outline>
    <contour>
      <point x="67" y="0" type="line"/>
      <point x="137" y="0" type="line"/>
      <point x="244" y="961" type="line"/>
      <point x="430" y="128" type="line"/>
      <point x="456" y="128" type="line"/>
      <point x="820" y="964" type="line"/>
      <point x="724" y="0" type="line"/>
      <point x="794" y="0" type="line"/>
      <point x="911" y="1184" type="line"/>
      <point x="844" y="1184" type="line"/>
      <point x="458" y="278" type="line"/>
      <point x="262" y="1184" type="line"/>
      <point x="200" y="1184" type="line"/>
    </contour>
  </outline>
</glyph>
<glyph name="afii10079" format="1">
  <advance width="854"/>
  <unicode hex="043D"/>
  <outline>
    <contour>
      <point x="77" y="0" type="line"/>
      <point x="154" y="0" type="line"/>
      <point x="216" y="587" type="line"/>
      <point x="680" y="587" type="line"/>
      <point x="618" y="0" type="line"/>
      <point x="696" y="0" type="line"/>
      <point x="820" y="1184" type="line"/>
      <point x="742" y="1184" type="line"/>
      <point x="687" y="649" type="line"/>
      <point x="223" y="649" type="line"/>
      <point x="278" y="1184" type="line"/>
      <point x="201" y="1184" type="line"/>
    </contour>
  </outline>
</glyph>
<glyph name="afii10084" format="1">
  <advance width="662"/>
  <unicode hex="0442"/>
  <outline>
    <contour>
      <point x="257" y="0" type="line"/>
      <point x="335" y="0" type="line"/>
      <point x="453" y="1122" type="line"/>
      <point x="733" y="1122" type="line"/>
      <point x="740" y="1184" type="line"/>
      <point x="89" y="1184" type="line"/>
      <point x="83" y="1122" type="line"/>
      <point x="375" y="1122" type="line"/>
    </contour>
  </outline>
</glyph>
<glyph name="afii10085" format="1">
  <advance width="750"/>
  <unicode hex="0443"/>
  <outline>
    <contour>
      <point x="1" y="-298" type="line"/>
      <point x="205" y="-281"/>
      <point x="306" y="-252"/>
      <point x="367" y="-71" type="curve" smooth="yes"/>
      <point x="786" y="1184" type="line"/>
      <point x="711" y="1184" type="line"/>
      <point x="505" y="548" type="line"/>
      <point x="363" y="108" type="line"/>
      <point x="308" y="555" type="line"/>
      <point x="230" y="1184" type="line"/>
      <point x="152" y="1184" type="line"/>
      <point x="301" y="85" type="line"/>
      <point x="323" y="-71"/>
      <point x="292" y="-229"/>
      <point x="8" y="-231" type="curve"/>
    </contour>
  </outline>
</glyph>
<glyph name="afii10086" format="1">
  <advance width="1051"/>
  <unicode hex="0444"/>
  <outline>
    <contour>
      <point x="407" y="-390" type="line"/>
      <point x="478" y="-390" type="line"/>
      <point x="530" y="97" type="line"/>
      <point x="600" y="97" type="line" smooth="yes"/>
      <point x="779" y="97"/>
      <point x="929" y="140"/>
      <point x="968" y="505" type="curve" smooth="yes"/>
      <point x="990" y="718" type="line" smooth="yes"/>
      <point x="1027" y="1073"/>
      <point x="917" y="1136"/>
      <point x="732" y="1136" type="curve" smooth="yes"/>
      <point x="638" y="1136" type="line"/>
      <point x="693" y="1658" type="line"/>
      <point x="622" y="1658" type="line"/>
      <point x="567" y="1136" type="line"/>
      <point x="477" y="1136" type="line" smooth="yes"/>
      <point x="291" y="1136"/>
      <point x="167" y="1073"/>
      <point x="130" y="718" type="curve" smooth="yes"/>
      <point x="108" y="505" type="line" smooth="yes"/>
      <point x="69" y="140"/>
      <point x="211" y="97"/>
      <point x="390" y="97" type="curve" smooth="yes"/>
      <point x="459" y="97" type="line"/>
    </contour>
    <contour>
      <point x="396" y="153" type="line"/>
      <point x="253" y="153"/>
      <point x="141" y="175"/>
      <point x="176" y="502" type="curve" smooth="yes"/>
      <point x="199" y="722" type="line" smooth="yes"/>
      <point x="233" y="1047"/>
      <point x="325" y="1080"/>
      <point x="471" y="1080" type="curve" smooth="yes"/>
      <point x="561" y="1080" type="line"/>
      <point x="464" y="153" type="line"/>
    </contour>
    <contour>
      <point x="535" y="153" type="line"/>
      <point x="632" y="1079" type="line"/>
      <point x="724" y="1079" type="line" smooth="yes"/>
      <point x="870" y="1079"/>
      <point x="956" y="1047"/>
      <point x="921" y="722" type="curve" smooth="yes"/>
      <point x="899" y="502" type="line" smooth="yes"/>
      <point x="864" y="175"/>
      <point x="747" y="153"/>
      <point x="604" y="153" type="curve" smooth="yes"/>
    </contour>
  </outline>
</glyph>
<glyph name="afii10088" format="1">
  <advance width="796"/>
  <unicode hex="0446"/>
  <outline>
    <contour>
      <point x="635" y="-267" type="line"/>
      <point x="696" y="-267" type="line"/>
      <point x="730" y="54" type="line"/>
      <point x="638" y="54" type="line"/>
      <point x="756" y="1184" type="line"/>
      <point x="678" y="1184" type="line"/>
      <point x="560" y="54" type="line"/>
      <point x="160" y="54" type="line"/>
      <point x="278" y="1184" type="line"/>
      <point x="201" y="1184" type="line"/>
      <point x="77" y="0" type="line"/>
      <point x="655" y="0" type="line"/>
    </contour>
  </outline>
</glyph>
<glyph name="afii10089" format="1">
  <advance width="738"/>
  <unicode hex="0447"/>
  <outline>
    <contour>
      <point x="499" y="0" type="line"/>
      <point x="577" y="0" type="line"/>
      <point x="701" y="1184" type="line"/>
      <point x="623" y="1184" type="line"/>
      <point x="559" y="576" type="line"/>
      <point x="503" y="560"/>
      <point x="462" y="549"/>
      <point x="377" y="549" type="curve" smooth="yes"/>
      <point x="260" y="549"/>
      <point x="187" y="605"/>
      <point x="200" y="735" type="curve" smooth="yes"/>
      <point x="247" y="1184" type="line"/>
      <point x="169" y="1184" type="line"/>
      <point x="122" y="738" type="line" smooth="yes"/>
      <point x="105" y="568"/>
      <point x="205" y="490"/>
      <point x="361" y="490" type="curve" smooth="yes"/>
      <point x="440" y="490"/>
      <point x="496" y="505"/>
      <point x="553" y="519" type="curve"/>
    </contour>
  </outline>
</glyph>
<glyph name="afii10090" format="1">
  <advance width="1085"/>
  <unicode hex="0448"/>
  <outline>
    <contour>
      <point x="77" y="0" type="line"/>
      <point x="927" y="0" type="line"/>
      <point x="1051" y="1184" type="line"/>
      <point x="974" y="1184" type="line"/>
      <point x="856" y="54" type="line"/>
      <point x="552" y="54" type="line"/>
      <point x="670" y="1184" type="line"/>
      <point x="593" y="1184" type="line"/>
      <point x="475" y="54" type="line"/>
      <point x="160" y="54" type="line"/>
      <point x="278" y="1184" type="line"/>
      <point x="201" y="1184" type="line"/>
    </contour>
  </outline>
</glyph>
<glyph name="afii10096" format="1">
  <advance width="1017"/>
  <unicode hex="044E"/>
  <outline>
    <contour>
      <point x="597" y="-20" type="curve" smooth="yes"/>
      <point x="823" y="-20"/>
      <point x="894" y="130"/>
      <point x="927" y="435" type="curve" smooth="yes"/>
      <point x="960" y="748" type="line" smooth="yes"/>
      <point x="992" y="1054"/>
      <point x="952" y="1204"/>
      <point x="726" y="1204" type="curve" smooth="yes"/>
      <point x="500" y="1204"/>
      <point x="429" y="1051"/>
      <point x="397" y="748" type="curve"/>
      <point x="381" y="609" type="line"/>
      <point x="216" y="609" type="line"/>
      <point x="276" y="1184" type="line"/>
      <point x="201" y="1184" type="line"/>
      <point x="77" y="0" type="line"/>
      <point x="152" y="0" type="line"/>
      <point x="210" y="553" type="line"/>
      <point x="375" y="553" type="line"/>
      <point x="364" y="435" type="line" smooth="yes"/>
      <point x="331" y="130"/>
      <point x="371" y="-20"/>
    </contour>
    <contour>
      <point x="603" y="40" type="curve" smooth="yes"/>
      <point x="419" y="40"/>
      <point x="412" y="180"/>
      <point x="439" y="434" type="curve" smooth="yes"/>
      <point x="472" y="750" type="line" smooth="yes"/>
      <point x="498" y="1004"/>
      <point x="535" y="1144"/>
      <point x="719" y="1144" type="curve" smooth="yes"/>
      <point x="903" y="1144"/>
      <point x="910" y="1004"/>
      <point x="885" y="750" type="curve" smooth="yes"/>
      <point x="851" y="434" type="line" smooth="yes"/>
      <point x="824" y="180"/>
      <point x="788" y="40"/>
    </contour>
  </outline>
</glyph>
<glyph name="afii10097" format="1">
  <advance width="762"/>
  <unicode hex="044F"/>
  <outline>
    <contour>
      <point x="4" y="0" type="line"/>
      <point x="88" y="0" type="line"/>
      <point x="370" y="500" type="line"/>
      <point x="418" y="492"/>
      <point x="495" y="492"/>
      <point x="578" y="492" type="curve"/>
      <point x="526" y="0" type="line"/>
      <point x="604" y="0" type="line"/>
      <point x="728" y="1184" type="line"/>
      <point x="540" y="1184" type="line" smooth="yes"/>
      <point x="224" y="1184"/>
      <point x="176" y="989"/>
      <point x="161" y="846" type="curve" smooth="yes"/>
      <point x="149" y="738"/>
      <point x="168" y="582"/>
      <point x="303" y="524" type="curve"/>
    </contour>
    <contour>
      <point x="499" y="550" type="line"/>
      <point x="292" y="550"/>
      <point x="215" y="644"/>
      <point x="237" y="845" type="curve" smooth="yes"/>
      <point x="251" y="981"/>
      <point x="286" y="1125"/>
      <point x="533" y="1125" type="curve" smooth="yes"/>
      <point x="644" y="1125" type="line"/>
      <point x="583" y="550" type="line"/>
    </contour>
  </outline>
</glyph>
<glyph name="afii10105" format="1">
  <advance width="397"/>
  <unicode hex="0458"/>
  <outline>
    <contour>
      <point x="-104" y="-321" type="line"/>
      <point x="-102" y="-322"/>
      <point x="-61" y="-322"/>
      <point x="-58" y="-322" type="curve" smooth="yes"/>
      <point x="88" y="-322"/>
      <point x="182" y="-262"/>
      <point x="202" y="-70" type="curve" smooth="yes"/>
      <point x="333" y="1184" type="line"/>
      <point x="255" y="1184" type="line"/>
      <point x="124" y="-67" type="line" smooth="yes"/>
      <point x="115" y="-156"/>
      <point x="104" y="-254"/>
      <point x="-53" y="-254" type="curve" smooth="yes"/>
      <point x="-54" y="-254"/>
      <point x="-96" y="-254"/>
      <point x="-97" y="-254" type="curve"/>
    </contour>
    <contour>
      <point x="271" y="1333" type="line"/>
      <point x="349" y="1333" type="line"/>
      <point x="368" y="1511" type="line"/>
      <point x="290" y="1511" type="line"/>
    </contour>
  </outline>
</glyph>
<glyph name="afii10107" format="1">
  <advance width="1157"/>
  <unicode hex="045A"/>
  <outline>
    <contour>
      <point x="77" y="0" type="line"/>
      <point x="154" y="0" type="line"/>
      <point x="215" y="574" type="line"/>
      <point x="615" y="574" type="line"/>
      <point x="555" y="0" type="line"/>
      <point x="737" y="0" type="line"/>
      <point x="1051" y="0"/>
      <point x="1084" y="167"/>
      <point x="1099" y="309" type="curve" smooth="yes"/>
      <point x="1114" y="457"/>
      <point x="1121" y="634"/>
      <point x="805" y="634" type="curve" smooth="yes"/>
      <point x="805" y="634"/>
      <point x="700" y="634"/>
      <point x="699" y="634" type="curve"/>
      <point x="756" y="1184" type="line"/>
      <point x="679" y="1184" type="line"/>
      <point x="621" y="635" type="line"/>
      <point x="221" y="635" type="line"/>
      <point x="278" y="1184" type="line"/>
      <point x="201" y="1184" type="line"/>
    </contour>
    <contour>
      <point x="638" y="59" type="curve"/>
      <point x="693" y="575" type="line"/>
      <point x="694" y="575"/>
      <point x="799" y="575"/>
      <point x="799" y="575" type="curve" smooth="yes"/>
      <point x="1045" y="575"/>
      <point x="1038" y="448"/>
      <point x="1023" y="310" type="curve" smooth="yes"/>
      <point x="1009" y="174"/>
      <point x="989" y="59"/>
      <point x="744" y="59" type="curve" smooth="yes"/>
      <point x="744" y="59"/>
      <point x="638" y="59"/>
    </contour>
  </outline>
</glyph>
<glyph name="uni0490" format="1">
  <advance width="761"/>
  <unicode hex="0490"/>
  <outline>
    <contour>
      <point x="117" y="0" type="line"/>
      <point x="196" y="0" type="line"/>
      <point x="364" y="1595" type="line"/>
      <point x="845" y="1595" type="line"/>
      <point x="869" y="1825" type="line"/>
      <point x="813" y="1825" type="line"/>
      <point x="796" y="1658" type="line"/>
      <point x="291" y="1658" type="line"/>
    </contour>
  </outline>
</glyph>
<glyph name="afii10098" format="1">
  <advance width="591"/>
  <unicode hex="0491"/>
  <outline>
    <contour>
      <point x="93" y="0" type="line"/>
      <point x="170" y="0" type="line"/>
      <point x="287" y="1119" type="line"/>
      <point x="609" y="1119" type="line"/>
      <point x="630" y="1321" type="line"/>
      <point x="577" y="1321" type="line"/>
      <point x="563" y="1184" type="line"/>
      <point x="217" y="1184" type="line"/>
    </contour>
  </outline>
</glyph>
<glyph name="uni04AF" format="1">
  <advance width="757"/>
  <unicode hex="04AF"/>
  <outline>
    <contour>
      <point x="267" y="-299" type="line"/>
      <point x="345" y="-299" type="line"/>
      <point x="379" y="21" type="line"/>
      <point x="789" y="1184" type="line"/>
      <point x="713" y="1184" type="line"/>
      <point x="356" y="160" type="line"/>
      <point x="214" y="1184" type="line"/>
      <point x="139" y="1184" type="line"/>
      <point x="301" y="22" type="line"/>
    </contour>
  </outline>
</glyph>
<glyph name="uni04B1" format="1">
  <advance width="758"/>
  <unicode hex="04B1"/>
  <outline>
    <contour>
      <point x="76" y="-3" type="line"/>
      <point x="603" y="-3" type="line"/>
      <point x="608" y="53" type="line"/>
      <point x="82" y="53" type="line"/>
    </contour>
    <component base="uni04AF"/>
  </outline>
</glyph>
<glyph name="uni04E9" format="1">
  <advance width="760"/>
  <unicode hex="04E9"/>
  <outline>
    <contour>
      <point x="149" y="588" type="line"/>
      <point x="642" y="588" type="line"/>
      <point x="649" y="647" type="line"/>
      <point x="155" y="647" type="line"/>
    </contour>
    <component base="o"/>
  </outline>
</glyph>
<glyph name="endash" format="1">
  <advance width="914"/>
  <unicode hex="2013"/>
  <outline>
    <contour>
      <point x="158" y="443" type="line"/>
      <point x="789" y="443" type="line"/>
      <point x="797" y="521" type="line"/>
      <point x="166" y="521" type="line"/>
    </contour>
  </outline>
</glyph>
<glyph name="quotesinglbase" format="1">
  <advance width="572"/>
  <unicode hex="201A"/>
  <outline>
    <contour>
      <point x="193" y="-213" type="line"/>
      <point x="278" y="-157"/>
      <point x="299" y="-92"/>
      <point x="312" y="35" type="curve" smooth="yes"/>
      <point x="328" y="176" type="line"/>
      <point x="224" y="176" type="line"/>
      <point x="206" y="5" type="line"/>
      <point x="260" y="5" type="line"/>
      <point x="250" y="-90"/>
      <point x="239" y="-133"/>
      <point x="164" y="-191" type="curve"/>
    </contour>
  </outline>
</glyph>
<glyph name="quotedblleft" format="1">
  <advance width="611"/>
  <unicode hex="201C"/>
  <outline>
    <contour>
      <point x="238" y="1316" type="line"/>
      <point x="341" y="1316" type="line"/>
      <point x="359" y="1488" type="line"/>
      <point x="304" y="1488" type="line"/>
      <point x="314" y="1583"/>
      <point x="326" y="1625"/>
      <point x="400" y="1683" type="curve"/>
      <point x="372" y="1706" type="line"/>
      <point x="287" y="1650"/>
      <point x="265" y="1585"/>
      <point x="252" y="1458" type="curve" smooth="yes"/>
    </contour>
    <contour>
      <point x="467" y="1316" type="line"/>
      <point x="570" y="1316" type="line"/>
      <point x="588" y="1488" type="line"/>
      <point x="534" y="1488" type="line"/>
      <point x="543" y="1583"/>
      <point x="555" y="1625"/>
      <point x="629" y="1683" type="curve"/>
      <point x="601" y="1706" type="line"/>
      <point x="517" y="1650"/>
      <point x="495" y="1585"/>
      <point x="482" y="1458" type="curve" smooth="yes"/>
    </contour>
  </outline>
</glyph>
<glyph name="quotedblbase" format="1">
  <advance width="670"/>
  <unicode hex="201E"/>
  <outline>
    <contour>
      <point x="128" y="-215" type="line"/>
      <point x="212" y="-159"/>
      <point x="234" y="-94"/>
      <point x="247" y="33" type="curve" smooth="yes"/>
      <point x="262" y="175" type="line"/>
      <point x="159" y="175" type="line"/>
      <point x="141" y="3" type="line"/>
      <point x="195" y="3" type="line"/>
      <point x="186" y="-92"/>
      <point x="174" y="-134"/>
      <point x="99" y="-192" type="curve"/>
    </contour>
    <contour>
      <point x="360" y="-215" type="line"/>
      <point x="444" y="-159"/>
      <point x="467" y="-94"/>
      <point x="479" y="33" type="curve" smooth="yes"/>
      <point x="494" y="175" type="line"/>
      <point x="391" y="175" type="line"/>
      <point x="373" y="3" type="line"/>
      <point x="427" y="3" type="line"/>
      <point x="418" y="-92"/>
      <point x="406" y="-134"/>
      <point x="332" y="-192" type="curve"/>
    </contour>
  </outline>
</glyph>
<glyph name="dagger" format="1">
  <advance width="657"/>
  <unicode hex="2020"/>
  <outline>
    <contour>
      <point x="253" y="0" type="line"/>
      <point x="327" y="0" type="line"/>
      <point x="447" y="1149" type="line"/>
      <point x="717" y="1149" type="line"/>
      <point x="724" y="1211" type="line"/>
      <point x="454" y="1211" type="line"/>
      <point x="495" y="1599" type="line"/>
      <point x="421" y="1599" type="line"/>
      <point x="380" y="1211" type="line"/>
      <point x="107" y="1211" type="line"/>
      <point x="100" y="1149" type="line"/>
      <point x="373" y="1149" type="line"/>
    </contour>
  </outline>
</glyph>
<glyph name="perthousand" format="1">
  <advance width="1654"/>
  <unicode hex="2030"/>
  <outline>
    <contour>
      <point x="344" y="939" type="curve" smooth="yes"/>
      <point x="266" y="939"/>
      <point x="244" y="1004"/>
      <point x="256" y="1120" type="curve"/>
      <point x="293" y="1465" type="line"/>
      <point x="304" y="1574"/>
      <point x="340" y="1644"/>
      <point x="418" y="1644" type="curve" smooth="yes"/>
      <point x="495" y="1644"/>
      <point x="517" y="1574"/>
      <point x="506" y="1466" type="curve"/>
      <point x="469" y="1121" type="line"/>
      <point x="457" y="1004"/>
      <point x="422" y="939"/>
    </contour>
    <contour>
      <point x="337" y="876" type="curve" smooth="yes"/>
      <point x="475" y="876"/>
      <point x="526" y="985"/>
      <point x="540" y="1125" type="curve" smooth="yes"/>
      <point x="576" y="1463" type="line" smooth="yes"/>
      <point x="591" y="1604"/>
      <point x="557" y="1707"/>
      <point x="425" y="1707" type="curve" smooth="yes"/>
      <point x="292" y="1707"/>
      <point x="236" y="1604"/>
      <point x="221" y="1462" type="curve" smooth="yes"/>
      <point x="186" y="1126" type="line" smooth="yes"/>
      <point x="171" y="985"/>
      <point x="198" y="876"/>
    </contour>
    <contour>
      <point x="871" y="48" type="curve" smooth="yes"/>
      <point x="792" y="48"/>
      <point x="771" y="114"/>
      <point x="783" y="230" type="curve"/>
      <point x="819" y="575" type="line"/>
      <point x="831" y="684"/>
      <point x="867" y="754"/>
      <point x="945" y="754" type="curve" smooth="yes"/>
      <point x="1022" y="754"/>
      <point x="1044" y="684"/>
      <point x="1032" y="576" type="curve"/>
      <point x="996" y="230" type="line"/>
      <point x="984" y="114"/>
      <point x="948" y="48"/>
    </contour>
    <contour>
      <point x="864" y="-14" type="curve" smooth="yes"/>
      <point x="1002" y="-14"/>
      <point x="1053" y="94"/>
      <point x="1067" y="235" type="curve" smooth="yes"/>
      <point x="1103" y="573" type="line" smooth="yes"/>
      <point x="1118" y="714"/>
      <point x="1084" y="816"/>
      <point x="951" y="816" type="curve" smooth="yes"/>
      <point x="818" y="816"/>
      <point x="764" y="714"/>
      <point x="749" y="572" type="curve" smooth="yes"/>
      <point x="713" y="236" type="line" smooth="yes"/>
      <point x="699" y="95"/>
      <point x="726" y="-14"/>
    </contour>
    <contour>
      <point x="1333" y="47" type="curve" smooth="yes"/>
      <point x="1255" y="47"/>
      <point x="1233" y="113"/>
      <point x="1246" y="229" type="curve"/>
      <point x="1282" y="574" type="line"/>
      <point x="1293" y="683"/>
      <point x="1329" y="753"/>
      <point x="1407" y="753" type="curve" smooth="yes"/>
      <point x="1484" y="753"/>
      <point x="1506" y="683"/>
      <point x="1495" y="575" type="curve"/>
      <point x="1459" y="229" type="line"/>
      <point x="1446" y="113"/>
      <point x="1410" y="47"/>
    </contour>
    <contour>
      <point x="1326" y="-15" type="curve" smooth="yes"/>
      <point x="1464" y="-15"/>
      <point x="1514" y="94"/>
      <point x="1529" y="234" type="curve" smooth="yes"/>
      <point x="1565" y="572" type="line" smooth="yes"/>
      <point x="1580" y="713"/>
      <point x="1546" y="816"/>
      <point x="1413" y="816" type="curve" smooth="yes"/>
      <point x="1281" y="816"/>
      <point x="1226" y="713"/>
      <point x="1211" y="571" type="curve" smooth="yes"/>
      <point x="1175" y="235" type="line" smooth="yes"/>
      <point x="1160" y="94"/>
      <point x="1187" y="-15"/>
    </contour>
    <contour>
      <point x="221" y="0" type="line"/>
      <point x="297" y="0" type="line"/>
      <point x="1070" y="1686" type="line"/>
      <point x="996" y="1686" type="line"/>
    </contour>
  </outline>
</glyph>
<glyph name="guilsinglright" format="1">
  <advance width="698"/>
  <unicode hex="203A"/>
  <outline>
    <contour>
      <point x="172" y="283" type="line"/>
      <point x="570" y="697" type="line"/>
      <point x="572" y="721" type="line"/>
      <point x="261" y="1136" type="line"/>
      <point x="250" y="1034" type="line"/>
      <point x="489" y="708" type="line"/>
      <point x="183" y="386" type="line"/>
    </contour>
  </outline>
</glyph>
<glyph name="uni2074" format="1">
  <advance width="747"/>
  <unicode hex="2074"/>
  <outline>
    <contour>
      <point x="462" y="522" type="line"/>
      <point x="532" y="522" type="line"/>
      <point x="566" y="841" type="line"/>
      <point x="699" y="841" type="line"/>
      <point x="705" y="902" type="line"/>
      <point x="572" y="902" type="line"/>
      <point x="652" y="1658" type="line"/>
      <point x="575" y="1658" type="line"/>
      <point x="174" y="899" type="line"/>
      <point x="168" y="841" type="line"/>
      <point x="495" y="841" type="line"/>
    </contour>
    <contour>
      <point x="246" y="902" type="line"/>
      <point x="569" y="1532" type="line"/>
      <point x="502" y="902" type="line"/>
    </contour>
  </outline>
</glyph>
<glyph name="trademark" format="1">
  <advance width="1382"/>
  <unicode hex="2122"/>
  <outline>
    <contour>
      <point x="637" y="766" type="line"/>
      <point x="705" y="766" type="line"/>
      <point x="783" y="1511" type="line"/>
      <point x="960" y="766" type="line"/>
      <point x="992" y="766" type="line"/>
      <point x="1331" y="1528" type="line"/>
      <point x="1251" y="766" type="line"/>
      <point x="1318" y="766" type="line"/>
      <point x="1411" y="1658" type="line"/>
      <point x="1325" y="1658" type="line"/>
      <point x="990" y="894" type="line"/>
      <point x="815" y="1658" type="line"/>
      <point x="730" y="1658" type="line"/>
    </contour>
    <contour>
      <point x="274" y="766" type="line"/>
      <point x="347" y="766" type="line"/>
      <point x="434" y="1596" type="line"/>
      <point x="619" y="1596" type="line"/>
      <point x="625" y="1658" type="line"/>
      <point x="169" y="1658" type="line"/>
      <point x="162" y="1596" type="line"/>
      <point x="361" y="1596" type="line"/>
    </contour>
  </outline>
</glyph>
<glyph name="estimated" format="1">
  <advance width="781"/>
  <unicode hex="212E"/>
  <outline>
    <contour>
      <point x="360" y="-20" type="curve" smooth="yes"/>
      <point x="579" y="-20"/>
      <point x="651" y="113"/>
      <point x="672" y="305" type="curve" smooth="yes"/>
      <point x="682" y="397" type="line"/>
      <point x="623" y="397" type="line"/>
      <point x="613" y="302" type="line" smooth="yes"/>
      <point x="585" y="37"/>
      <point x="454" y="32"/>
      <point x="367" y="32" type="curve" smooth="yes"/>
      <point x="226" y="32"/>
      <point x="179" y="71"/>
      <point x="212" y="394" type="curve" smooth="yes"/>
      <point x="236" y="616" type="line"/>
      <point x="702" y="616" type="line"/>
      <point x="716" y="719" type="line" smooth="yes"/>
      <point x="752" y="1063"/>
      <point x="686" y="1174"/>
      <point x="487" y="1174" type="curve" smooth="yes"/>
      <point x="324" y="1174"/>
      <point x="189" y="1122"/>
      <point x="148" y="735" type="curve" smooth="yes"/>
      <point x="116" y="430" type="line" smooth="yes"/>
      <point x="76" y="48"/>
      <point x="197" y="-20"/>
    </contour>
    <contour>
      <point x="241" y="663" type="line"/>
      <point x="252" y="778" type="line" smooth="yes"/>
      <point x="284" y="1081"/>
      <point x="339" y="1122"/>
      <point x="481" y="1122" type="curve" smooth="yes"/>
      <point x="664" y="1122"/>
      <point x="651" y="997"/>
      <point x="627" y="769" type="curve" smooth="yes"/>
      <point x="616" y="663" type="line"/>
    </contour>
  </outline>
</glyph>
<glyph name="partialdiff" format="1">
  <advance width="834"/>
  <unicode hex="2202"/>
  <outline>
    <contour>
      <point x="350" y="-20" type="curve" smooth="yes"/>
      <point x="501" y="-20"/>
      <point x="640" y="78"/>
      <point x="679" y="310" type="curve"/>
      <point x="679" y="310"/>
      <point x="819" y="1181"/>
      <point x="821" y="1201" type="curve" smooth="yes"/>
      <point x="861" y="1592"/>
      <point x="643" y="1686"/>
      <point x="423" y="1686" type="curve"/>
      <point x="394" y="1628" type="line"/>
      <point x="650" y="1614"/>
      <point x="782" y="1529"/>
      <point x="748" y="1206" type="curve" smooth="yes"/>
      <point x="745" y="1186"/>
      <point x="716" y="1000"/>
      <point x="716" y="997" type="curve"/>
      <point x="681" y="1051"/>
      <point x="611" y="1120"/>
      <point x="495" y="1121" type="curve" smooth="yes"/>
      <point x="288" y="1121"/>
      <point x="211" y="994"/>
      <point x="156" y="647" type="curve"/>
      <point x="129" y="487" type="line" smooth="yes"/>
      <point x="123" y="448"/>
      <point x="118" y="411"/>
      <point x="114" y="377" type="curve" smooth="yes"/>
      <point x="86" y="99"/>
      <point x="154" y="-15"/>
    </contour>
    <contour>
      <point x="358" y="40" type="curve" smooth="yes"/>
      <point x="216" y="40"/>
      <point x="162" y="126"/>
      <point x="187" y="357" type="curve"/>
      <point x="191" y="394"/>
      <point x="196" y="435"/>
      <point x="204" y="480" type="curve"/>
      <point x="231" y="645" type="line"/>
      <point x="282" y="964"/>
      <point x="324" y="1061"/>
      <point x="488" y="1061" type="curve" smooth="yes"/>
      <point x="589" y="1061"/>
      <point x="664" y="986"/>
      <point x="704" y="935" type="curve"/>
      <point x="602" y="303" type="line"/>
      <point x="571" y="127"/>
      <point x="483" y="40"/>
    </contour>
  </outline>
</glyph>
<glyph name="minus" format="1">
  <advance width="680"/>
  <unicode hex="2212"/>
  <outline>
    <contour>
      <point x="99" y="736" type="line"/>
      <point x="654" y="736" type="line"/>
      <point x="661" y="796" type="line"/>
      <point x="106" y="796" type="line"/>
    </contour>
  </outline>
</glyph>
<glyph name="uni2219" format="1">
  <advance width="410"/>
  <unicode hex="2219"/>
  <outline>
    <contour>
      <point x="225" y="708" type="line"/>
      <point x="307" y="708" type="line"/>
      <point x="321" y="840" type="line"/>
      <point x="239" y="840" type="line"/>
    </contour>
  </outline>
</glyph>
<glyph name="radical" format="1">
  <advance width="921"/>
  <unicode hex="221A"/>
  <outline>
    <contour>
      <point x="387" y="0" type="line"/>
      <point x="479" y="0" type="line"/>
      <point x="1030" y="1658" type="line"/>
      <point x="947" y="1658" type="line"/>
      <point x="868" y="1420"/>
      <point x="767" y="1106"/>
      <point x="688" y="865" type="curve"/>
      <point x="610" y="626"/>
      <point x="523" y="357"/>
      <point x="445" y="117" type="curve"/>
      <point x="424" y="283"/>
      <point x="401" y="480"/>
      <point x="379" y="647" type="curve"/>
      <point x="358" y="814"/>
      <point x="332" y="1019"/>
      <point x="308" y="1184" type="curve"/>
      <point x="74" y="1184" type="line"/>
      <point x="68" y="1121" type="line"/>
      <point x="235" y="1122" type="line"/>
    </contour>
  </outline>
</glyph>
<glyph name="approxequal" format="1">
  <advance width="769"/>
  <unicode hex="2248"/>
  <outline>
    <contour>
      <point x="537" y="588" type="curve" smooth="yes"/>
      <point x="583" y="588"/>
      <point x="633" y="620"/>
      <point x="703" y="680" type="curve"/>
      <point x="678" y="716" type="line"/>
      <point x="607" y="664"/>
      <point x="581" y="646"/>
      <point x="543" y="646" type="curve" smooth="yes"/>
      <point x="489" y="646"/>
      <point x="370" y="753"/>
      <point x="301" y="753" type="curve" smooth="yes"/>
      <point x="250" y="753"/>
      <point x="196" y="719"/>
      <point x="125" y="645" type="curve"/>
      <point x="151" y="611" type="line"/>
      <point x="224" y="677"/>
      <point x="266" y="698"/>
      <point x="291" y="698" type="curve" smooth="yes"/>
      <point x="349" y="698"/>
      <point x="465" y="588"/>
    </contour>
    <contour>
      <point x="563" y="832" type="curve" smooth="yes"/>
      <point x="609" y="832"/>
      <point x="659" y="864"/>
      <point x="728" y="925" type="curve"/>
      <point x="703" y="960" type="line"/>
      <point x="633" y="909"/>
      <point x="607" y="890"/>
      <point x="569" y="890" type="curve" smooth="yes"/>
      <point x="516" y="890"/>
      <point x="395" y="998"/>
      <point x="326" y="998" type="curve" smooth="yes"/>
      <point x="275" y="998"/>
      <point x="222" y="963"/>
      <point x="150" y="890" type="curve"/>
      <point x="176" y="856" type="line"/>
      <point x="249" y="921"/>
      <point x="291" y="942"/>
      <point x="316" y="942" type="curve" smooth="yes"/>
      <point x="374" y="942"/>
      <point x="491" y="832"/>
    </contour>
  </outline>
</glyph>
<glyph name="notequal" format="1">
  <advance width="825"/>
  <unicode hex="2260"/>
  <outline>
    <contour>
      <point x="104" y="0" type="line"/>
      <point x="177" y="0" type="line"/>
      <point x="418" y="596" type="line"/>
      <point x="713" y="596" type="line"/>
      <point x="720" y="666" type="line"/>
      <point x="446" y="666" type="line"/>
      <point x="550" y="919" type="line"/>
      <point x="746" y="919" type="line"/>
      <point x="754" y="990" type="line"/>
      <point x="578" y="990" type="line"/>
      <point x="849" y="1658" type="line"/>
      <point x="777" y="1658" type="line"/>
      <point x="505" y="990" type="line"/>
      <point x="161" y="990" type="line"/>
      <point x="153" y="919" type="line"/>
      <point x="478" y="919" type="line"/>
      <point x="375" y="666" type="line"/>
      <point x="126" y="666" type="line"/>
      <point x="119" y="596" type="line"/>
      <point x="347" y="596" type="line"/>
    </contour>
  </outline>
</glyph>
<glyph name="greaterequal" format="1">
  <advance width="684"/>
  <unicode hex="2265"/>
  <outline>
    <contour>
      <point x="46" y="195" type="line"/>
      <point x="641" y="637" type="line"/>
      <point x="648" y="710" type="line"/>
      <point x="145" y="1133" type="line"/>
      <point x="136" y="1047" type="line"/>
      <point x="581" y="674" type="line"/>
      <point x="55" y="282" type="line"/>
    </contour>
    <contour>
      <point x="26" y="0" type="line"/>
      <point x="580" y="0" type="line"/>
      <point x="587" y="61" type="line"/>
      <point x="32" y="61" type="line"/>
    </contour>
  </outline>
</glyph>
<glyph name="uniFB02" format="1">
  <advance width="869"/>
  <unicode hex="FB02"/>
  <outline>
    <contour>
      <point x="158" y="0" type="line"/>
      <point x="235" y="0" type="line"/>
      <point x="354" y="1131" type="line"/>
      <point x="557" y="1131" type="line"/>
      <point x="562" y="1184" type="line"/>
      <point x="359" y="1184" type="line"/>
      <point x="359" y="1184"/>
      <point x="378" y="1361"/>
      <point x="378" y="1361" type="curve" smooth="yes"/>
      <point x="390" y="1476"/>
      <point x="408" y="1567"/>
      <point x="614" y="1567" type="curve" smooth="yes"/>
      <point x="658" y="1567"/>
      <point x="710" y="1562"/>
      <point x="774" y="1554" type="curve"/>
      <point x="611" y="0" type="line"/>
      <point x="688" y="0" type="line"/>
      <point x="856" y="1601" type="line"/>
      <point x="761" y="1619"/>
      <point x="683" y="1627"/>
      <point x="617" y="1627" type="curve" smooth="yes"/>
      <point x="349" y="1627"/>
      <point x="315" y="1492"/>
      <point x="301" y="1372" type="curve"/>
      <point x="282" y="1184" type="line"/>
      <point x="117" y="1184" type="line"/>
      <point x="112" y="1131" type="line"/>
      <point x="276" y="1131" type="line"/>
    </contour>
  </outline>
</glyph>
<glyph name="uni04AE" format="1">
  <advance width="843"/>
  <outline>
    <contour>
      <point x="353" y="0" type="line"/>
      <point x="432" y="0" type="line"/>
      <point x="507" y="713" type="line"/>
      <point x="976" y="1658" type="line"/>
      <point x="891" y="1658" type="line"/>
      <point x="612" y="1081" type="line"/>
      <point x="474" y="798" type="line"/>
      <point x="391" y="1084" type="line"/>
      <point x="220" y="1658" type="line"/>
      <point x="133" y="1658" type="line"/>
      <point x="428" y="713" type="line"/>
    </contour>
  </outline>
</glyph>
